<?xml version="1.0" standalone="yes"?>
<svg width="500" height="500">
<path style="fill:#ffffff; stroke:none;" d="M0 0L0 500L500 500L500 0L0 0z"/>
<path style="fill:#cec7c2; stroke:none;" d="M229 74L229 75L259 75L229 74z"/>
<path style="fill:#9b928c; stroke:none;" d="M221 77L221 78L238 77C232.575 74.6598 226.398 74.7227 221 77z"/>
<path style="fill:#958c89; stroke:none;" d="M241 75L241 76L260 77C256.486 72.9784 246.091 75 241 75z"/>
<path style="fill:#baa79f; stroke:none;" d="M262 75L262 76C267.035 76.682 271.099 77.4804 272 83L285 84C278.273 78.1341 270.858 75.3804 262 75z"/>
<path style="fill:#41362e; stroke:none;" d="M186 117C195.114 110.649 195.139 98.4998 203.04 91.3881C211.236 84.0111 228.796 87 239 87L239 88L237 91L220 91L220 92C227.229 94.346 234.263 94.9233 237 103L236 103L231 98C229.642 106.296 222.196 102.326 217 100L217 104C207.252 104.209 198.45 113.267 197 123C189.028 125.555 184.665 133.612 182 141L181 141L182 127L181 127L178 150L193 136L193 132C197.982 130.913 206.175 113.33 207 108C213.505 107.982 223.889 104.354 229 109L232 108L240 118L245 117L249 112L249 111L242 115L245 109L242 108L242 102L241 102L240 104L238 101L239 99L246 101L237 95L243 96L241 92L272 93L273 92L272 84L268 84L270 88L265 90L261 78L256 78L256 79L258 79L258 80L253 84L252 84C251.644 77.5098 240.923 76.2034 241 79C220.551 68.3598 201.172 89.0865 193.436 104.776C190.981 109.755 187.224 110.808 186 117z"/>
<path style="fill:#6b5f54; stroke:none;" d="M238 76L241 79L241 77C246.006 79.4786 250.612 77.3472 252 84L253 84L258 80L258 79L256 79L256 78L261 78L259 80L261 84L266 87L264 87L264 89L270 88L268 84L272 86L273 86L271 79L238 76z"/>
<path style="fill:#9a8e80; stroke:none;" d="M262 76L262 77L271 79L271 83C273.276 77.117 266.399 76.3598 262 76z"/>
<path style="fill:#b1aaa8; stroke:none;" d="M219.667 78.3333L220.333 78.6667L219.667 78.3333z"/>
<path style="fill:#ccc9c7; stroke:none;" d="M211 82L211 83L219 80L211 82z"/>
<path style="fill:#c7c4c3; stroke:none;" d="M208 83L208 84L211 84L208 83z"/>
<path style="fill:#8e827a; stroke:none;" d="M262 83L266 87L262 83z"/>
<path style="fill:#897c71; stroke:none;" d="M273 83L271 86L272 94L288 97L284 89L287 91L291 97L293 97C292.626 90.2244 286.812 84.5234 280 84L280 88L273 83z"/>
<path style="fill:#5a4e42; stroke:none;" d="M275 83L280 88L280 84L275 83z"/>
<path style="fill:#b5b0b3; stroke:none;" d="M195 90L195 91L208 85L195 90z"/>
<path style="fill:#727065; stroke:none;" d="M250 84L253 88L250 84z"/>
<path style="fill:#99b5da; stroke:none;" d="M286 85L295 94L296 87L286 85z"/>
<path style="fill:#231a1c; stroke:none;" d="M181 141L182 141C185.684 133.697 189.473 126.994 197 123C199.365 113.913 207.36 104.448 217 104L217 100C222.041 103.178 230.321 106.514 231 98L236 103L237 103C235.279 94.5376 227.243 93.8044 220 92L220 91L237 91L239 88C230.937 84.6165 208.984 85.1941 202.349 91.3881C197.536 95.8811 197.923 101.823 194.413 106.675C186.251 117.957 181.121 126.441 181 141z"/>
<path style="fill:#beb6ad; stroke:none;" d="M275 88L275 90L277 90L277 88L275 88z"/>
<path style="fill:#82a9f4; stroke:none;" d="M294 88L296 102C323.608 114.827 309.728 152.613 307 175L308 175C312.957 166.933 328.3 177.704 326 184L350 200L350 206L355 211L361 211L361 217L366 218L365 221C369.094 222.537 371.276 223.458 372 228L377 229L378 233L375 234L375 235C381.215 239.628 392.555 241.102 394 250L400 255L397 256L397 257L411 267L422 276C422.589 262.284 425.174 248.881 423.83 235C419.295 188.137 393.993 146.906 358 117.69C341.369 104.19 316.19 88.0636 294 88z"/>
<path style="fill:#65524e; stroke:none;" d="M246 90L253 93L253 99L254 99C255.85 87.7751 262.637 102.779 267 104L270 95L274 95C267.449 89.7907 254.112 89.3222 246 90z"/>
<path style="fill:#b1a9a1; stroke:none;" d="M284 89C284.973 92.311 286.739 92.3891 290 92L287 91L284 89z"/>
<path style="fill:#4c4b6c; stroke:none;" d="M199 90L194 101L195 101L201 90L199 90z"/>
<path style="fill:#895bf2; stroke:none;" d="M86 215L89 214L100 228C104.799 230.228 110.132 233.526 111 239C115.799 241.228 121.132 244.526 122 250C126.799 252.228 132.132 255.526 133 261L139 267L151 275L151 278C147.679 279.099 147.263 280.59 147 284L148 284C156.483 274.464 167.459 266.279 172.508 254C177.222 242.537 175.463 228.16 177 216C167.167 210.298 161.139 196.209 161.005 185C160.95 180.331 161.256 174.452 166.055 172.046C169.381 170.379 173.562 172.581 177 173C170.207 143.281 186.753 116.915 198 91C184.984 91.3046 171.703 100.233 161 106.95C133.334 124.311 111.349 148.808 96.7531 178C91.2484 189.009 84.4623 202.561 86 215z"/>
<path style="fill:#2b2022; stroke:none;" d="M241 92L248 101L239 99L245 109L242 110L242 115L249 111L249 112L245 117L240 118L237 115L239 122L240 130L241 130C241.05 125.792 241.266 123.29 245 121L245 126L248 125L244 139L257 146C258.152 152.675 260.385 157.041 265 162L262 165L281 168L275 175C279.914 173.37 284.75 170.524 285 165L287 165L286 163L291 159L295 159L304 149C293.44 148.509 289.786 139.551 289 130L285 131C288.596 121.384 281.373 118.065 273 115L275 120L272 118L267 119L270 117L266 109L263 110L257 100L255 104L254 104L253 93L241 92z"/>
<path style="fill:#f1e5de; stroke:none;" d="M285 92L290 96L290 92L285 92z"/>
<path style="fill:#463a3c; stroke:none;" d="M256 93L263 110L266 109L267 119L272 118L275 120L275 114C269.616 110.758 268.583 106.017 268 100L267 100L267 104L256 93z"/>
<path style="fill:#b0aaa6; stroke:none;" d="M290 93L288 98L289 102L292 108L296 108L295 105L300 105L290 93z"/>
<path style="fill:#9b9798; stroke:none;" d="M254 94L257 99L256 94L254 94z"/>
<path style="fill:#564945; stroke:none;" d="M274 95L274 96L289 102L290 98L274 95z"/>
<path style="fill:#cecfde; stroke:none;" d="M293 94C293.123 97.7136 293.424 99.5634 297 101L295 94L293 94z"/>
<path style="fill:#5e4b49; stroke:none;" d="M237 95L248 101C245.578 96.6312 241.66 95.9171 237 95z"/>
<path style="fill:#392f2d; stroke:none;" d="M270 95C265.775 106.828 275.929 120.04 289 118L293 122L293 123L285 121L285 122L285 131L289 130C289.583 143.329 294.796 145.289 305 151L306 148L294 142C299.77 143.13 308.101 143.74 310 137C302.775 137.258 310.869 128.984 306 127L307 129L306 129L304 125C308.759 123.458 308.903 119.54 309 115L302 116L301 115L302 109L298 109L300 114C293.347 113.714 294.11 106.743 290.412 102.725C285.318 97.1918 277.116 95.5624 270 95z"/>
<path style="fill:#8a8586; stroke:none;" d="M263 96L262 100L263 100L263 96z"/>
<path style="fill:#cdced1; stroke:none;" d="M254 97L256 102L254 97z"/>
<path style="fill:#484242; stroke:none;" d="M272 98L270 102L283 116L274 98L272 98z"/>
<path style="fill:#7b7774; stroke:none;" d="M254 100L254 104L255 104L254 100z"/>
<path style="fill:#69617b; stroke:none;" d="M193 101L191 108C193.726 106.036 194.283 104.142 193 101z"/>
<path style="fill:#6c615d; stroke:none;" d="M238 101L241 104L238 101z"/>
<path style="fill:#695a51; stroke:none;" d="M300 103L295 105L296 108L293 108L293 109L295 114L296 114L299 113L298 109L302 109L301 115L302 116L308 115L308 114L300 103z"/>
<path style="fill:#92634d; stroke:none;" d="M207 108L196 141L197 141L199 133L200 133L200 136C203.708 136.203 208.977 139.752 210 135L211 135L211 138L220 136C220.832 139.901 224.112 138.874 226.667 141.472C231.891 146.786 230.891 151.043 240 152L240 151C228.068 144.021 228 118.703 228 106L207 108z"/>
<path style="fill:#6b4039; stroke:none;" d="M228 107C228 124.646 228.814 155.462 252 157C248.866 150.499 252.923 151.231 258 153L257 146L244 139L248 125L245 126L245 121C240.716 122.722 241.015 125.774 241 130L240 130L239 122L232 108L228 107z"/>
<path style="fill:#60575a; stroke:none;" d="M283 107L287 111L283 107z"/>
<path style="fill:#aa9d9f; stroke:none;" d="M269 108L272 112L269 108z"/>
<path style="fill:#7f7a80; stroke:none;" d="M304 110L309 117L310 117C309.188 113.068 307.786 111.361 304 110z"/>
<path style="fill:#6d6364; stroke:none;" d="M272 111C275.648 118.45 285.147 122.038 293 123L293 122L289 118L272 111z"/>
<path style="fill:#58567c; stroke:none;" d="M186 112L182 127L183 127L186 112z"/>
<path style="fill:#827271; stroke:none;" d="M296 112C296.614 114.851 297.303 114.854 300 114L296 112z"/>
<path style="fill:#4e4d50; stroke:none;" d="M309 117L308 122L309 126L304 125L307 129L306 127L306 132L306 133L306 135L306 136L310 137C307.31 142.865 302.486 141.714 297 143L297 144L302 144L299 146L299 147L306 148L303 151L303 152L303 153L307 155C307.094 143.807 318.407 127.039 309 117z"/>
<path style="fill:#baafad; stroke:none;" d="M308 122L307 126L310 122L308 122z"/>
<path style="fill:#657696; stroke:none;" d="M312 122L311 141L312 141L312 122z"/>
<path style="fill:#686399; stroke:none;" d="M180 128L180 133L181 133L180 128z"/>
<path style="fill:#6e534a; stroke:none;" d="M196 131L193 132L193 136C184.925 137.182 182.867 143.79 179 150L178 147L177 147C175.528 154.93 172.945 170.637 184 171C184.063 163.406 185.437 154.741 189.103 148.019C192.304 142.149 199.065 138.853 196 131z"/>
<path style="fill:#605752; stroke:none;" d="M292 131L292 132L300 134L292 131z"/>
<path style="fill:#926d5b; stroke:none;" d="M199 133C197.377 139.753 192.993 140.899 189.63 146.143C185.379 152.771 184.064 162.26 184 170L197 170L193 173L193 193L192 193L192 182L183 179L180 180L177 173C173.258 173.814 168.42 172.292 165.059 174.042C154.691 179.443 165.032 196.767 169 203L171 203L173 199L175 199L178.039 237L175 253C176.596 261.598 174.135 268.575 174.058 276.985C174.022 280.82 175.971 284.161 175.942 288.004C175.854 299.833 173.318 307.767 185 315L183 311L188 312L189 284L208 287C209.447 293.754 225.022 289.941 230 289L230 288L214 289L214 286L200 286L192 280L192 270C183.373 261.218 187.183 254.404 185.691 244.014C184.991 239.135 182.414 235.024 182 230L183 230C184.917 235.182 187.692 238.29 193 240L193 234L198 235L198 234L195 231C188.72 229.119 189.333 217.529 187 212L190 213L188 208L191 207C189.01 203.667 188.116 197.914 194.005 198.403C198.404 198.768 202.918 202.645 207 204.254C215.258 207.508 222.149 209 231 209C228.844 215.909 227.489 223.336 236 226C237.189 218.866 248.172 228.312 248 229L250 225L242 220L237 220L236 220L235 220L233 222C231.201 213.259 238.01 214.757 241.976 209.351C245.509 204.536 247.934 193.95 248 188C254.78 188.523 256.678 193.793 257 200L258 200L258 197L259 197L262 214L263 214C263.07 189.646 294.648 216.224 292 191L278 183L278 182L281 182L281 181L272 181L272 180C278.512 176.913 281.448 174.603 289 176L283 174L294 166L287 166L275 175L281 168L258 171C257.74 163.094 252.572 164 246 164L246 163L257 159C243.891 158.616 226.527 146.399 220 136C216.35 136.737 213.35 138.479 211 135L210 135L210 138L199 133z"/>
<path style="fill:#948883; stroke:none;" d="M306 133L306 135L308 135L308 133L306 133z"/>
<path style="fill:#a3afd9; stroke:none;" d="M310 141L306 170L305 170L305 164L304 164C303.507 174.783 293.795 185.445 307 191C305.628 188.819 302.274 186.691 302.188 183.957C302.071 180.283 306.285 175.496 307.58 172C310.759 163.422 313.67 149.746 310 141z"/>
<path style="fill:#7f7772; stroke:none;" d="M294 142L302 146L302 144L294 142z"/>
<path style="fill:#6d6090; stroke:none;" d="M177 143L177 147L178 147L177 143z"/>
<path style="fill:#584f50; stroke:none;" d="M275 146L275 149L279 150L279 145L275 146z"/>
<path style="fill:#918587; stroke:none;" d="M307 147L305 170L306 170C308.833 164.113 309.562 153.105 307 147z"/>
<path style="fill:#865b49; stroke:none;" d="M252 156L250 159L257 159L246 163L246 164L259 167L265 162C262.554 158.43 259.808 154.027 255.871 151.979C251.313 149.608 248.02 151.987 252 156z"/>
<path style="fill:#857379; stroke:none;" d="M175 151C175 162.826 172.558 172.998 187 173L187 172C173.013 168.62 179.449 161.604 175 151z"/>
<path style="fill:#8f8177; stroke:none;" d="M300 157L305 153L300 157z"/>
<path style="fill:#4b3934; stroke:none;" d="M295 159L291 159L292 165C296.773 163.28 298.753 159.774 300 155L295 159z"/>
<path style="fill:#dbc5b9; stroke:none;" d="M301 162C299.022 166.659 299.206 171.086 294 173L299 179C305.22 174.566 304.995 162.004 305 155C301.48 155.865 297.171 158.64 301 162z"/>
<path style="fill:#503427; stroke:none;" d="M225 159C226.555 164.909 229.92 167.592 236 168C234.446 163.016 229.658 160.786 225 159z"/>
<path style="fill:#a88e82; stroke:none;" d="M297 160L293 169L301 164L297 160z"/>
<path style="fill:#674f48; stroke:none;" d="M286 163L285 165L285 168L288 168L287 166L294 166L292 162L286 163z"/>
<path style="fill:#603428; stroke:none;" d="M260 164L258 170L276 168L260 164z"/>
<path style="fill:#b79b95; stroke:none;" d="M290 179L294 180L286 184L286 186L296 186L296 187L290 203L302 200L302 199L295 199L295 195L300 195L300 194L295 194L298 188L292 173C298.5 172.64 298.628 169.661 300 164C292.804 166.226 290.059 171.945 290 179z"/>
<path style="fill:#8f624e; stroke:none;" d="M258 170L258 171L273 170L258 170z"/>
<path style="fill:#7f8af3; stroke:none;" d="M292 219L292 220L307 216L306 222L317 224L322 239L333 244C333.218 250.583 337.447 254.541 344 255C344.345 265.451 350.528 264.553 357.857 267.742C362.189 269.626 361.725 273.497 367 271L367 278C377.762 281.91 383.634 297.066 391.367 304.495C396.143 309.084 403.076 311.222 405 318L408 318L404 333L405 333C415.504 314.999 422.986 290.901 423 270L422 270L422 276L411 267C409.678 262.477 401.439 258.348 397 257L397 256L400 255L394 250C393.295 241.143 381.681 238.548 375 235L375 234L378 233L377 229L372 228C371.616 223.066 369.517 222.236 365 221L366 218L361 217L361 211L355 211L350 206L350 200L326 184C329.307 178.675 313.79 167.057 309.019 172.077C306.445 174.784 301.57 180.007 301.631 183.957C301.701 188.405 308.756 192.658 310.217 197.285C313.097 206.407 300.221 218.555 292 219z"/>
<path style="fill:#715f63; stroke:none;" d="M184 170L184 171L187 172L187 173L177 173L180 180L183 179C183.904 183.217 188.356 182 192 182L192 193L193 193L193 173L197 170L184 170z"/>
<path style="fill:#a88272; stroke:none;" d="M283 174L289 174L289 179L290 179L291 170C287.122 170.125 284.928 170.502 283 174z"/>
<path style="fill:#8f6da5; stroke:none;" d="M162 176L176 174C170.908 170.379 165.069 169.915 162 176z"/>
<path style="fill:#b99681; stroke:none;" d="M230 173L230 174L234 175L230 173z"/>
<path style="fill:#ecdcd2; stroke:none;" d="M292 173L297 186C303.38 181.138 297.264 175.144 292 173z"/>
<path style="fill:#5e362b; stroke:none;" d="M272 180L272 181L288 181L287 177L283 178C279.784 173.18 275.548 177.545 272 180z"/>
<path style="fill:#745645; stroke:none;" d="M282 175L283 178L287 177L288 181L292 181C289.121 177.095 286.941 175.273 282 175z"/>
<path style="fill:#3a4a30; stroke:none;" d="M222 176L222 185C228.221 184.93 230.803 183.48 231 177L222 176z"/>
<path style="fill:#987c71; stroke:none;" d="M291 179L278 182L278 183L292 191L293 196L294 196L296 187L296 186L286 186L286 184C289.073 183.951 296.679 182.066 291 179z"/>
<path style="fill:#4b2e1f; stroke:none;" d="M248 186L248 187L252 187L248 186z"/>
<path style="fill:#4a3b2c; stroke:none;" d="M271 194C275.15 193.985 278.544 194.387 280 190L284 191C278.477 184.405 271.112 184.591 271 194z"/>
<path style="fill:#9ca0bc; stroke:none;" d="M297 186L307 193L303 200L303 201L302 213L303 213C304.784 208.401 305.95 203.58 311 202L311 201L307 201C309.31 192.151 305.244 189.001 297 186z"/>
<path style="fill:#be8979; stroke:none;" d="M248 188C247.831 193.801 245.17 203.786 241.976 208.606C238.105 214.449 230.376 212.758 233 222L258 224C255.368 235.484 266.008 233.484 269 242L275 242L272 250C281.24 244.119 286.679 229.242 289 219L276 218L276 217C290.02 217 286.978 215.588 289 204C276.689 203.958 263.012 195.959 263 214L262 214L259 197L258 197L258 200C255.984 193.683 255.751 188.258 248 188z"/>
<path style="fill:#e4dfe2; stroke:none;" d="M295 188L295 194L307 195C304.402 190.752 299.784 188.853 295 188z"/>
<path style="fill:#a578da; stroke:none;" d="M161 189C163.102 198.842 166.817 212.042 177 216C174.771 228.008 177.221 241.538 172.508 253C169.26 260.902 163.403 266.36 158.013 272.661C152.239 279.412 145.435 287.028 136 288L136 289L138 291C166.281 283.696 186.701 241.642 178.682 214.144C177.531 210.198 171.128 207.669 168.775 203.829C165.911 199.159 165.521 192.381 161 189z"/>
<path style="fill:#b08770; stroke:none;" d="M194 193C199.384 203.946 233.748 216.281 236 199L231 200C229.75 188.874 207.211 189.603 199 193L194 193z"/>
<path style="fill:#c69ff4; stroke:none;" d="M89.3333 195.667L89.6667 196.333L89.3333 195.667z"/>
<path style="fill:#6a6269; stroke:none;" d="M295 195L295 199L306 200L306 195L295 195z"/>
<path style="fill:#767fbe; stroke:none;" d="M308 196L308 197L309 201L311 196L308 196z"/>
<path style="fill:#b88772; stroke:none;" d="M191 207L188 208L190 213L187 212C188.734 217.47 188.674 229.891 195 231L207 241C207.357 224.341 219.558 235.108 227.106 227.397C230.325 224.109 230.057 213.594 231 209C222.228 209 215.116 207.246 207 203.852C202.888 202.132 198.486 198.345 194.005 197.867C187.622 197.185 188.274 203.59 191 207z"/>
<path style="fill:#515883; stroke:none;" d="M308 197L307 201L310 197L308 197z"/>
<path style="fill:#b17d6d; stroke:none;" d="M173 199L171 203L169 203L168 200L167 200C168.266 205.279 171.539 209.842 177 211L175 199L173 199z"/>
<path style="fill:#e3c7b6; stroke:none;" d="M293 200C288.916 204.623 287.459 206.963 290 213L291 213L293 200z"/>
<path style="fill:#e6e8ed; stroke:none;" d="M294 200C293.409 205.898 291.239 212.769 287 217L287 218C298.058 217.524 302.796 211.537 305 201L294 200z"/>
<path style="fill:#9594e3; stroke:none;" d="M303 213L301 211C297.053 215.992 293.28 217.5 287 218L287 219C288.435 222.292 286.204 225.617 285.2 229C282.175 239.19 273.104 252.085 265 259L269 264L279.206 246.039L291.853 221.317L303.387 214.671L311 203C305.672 201.202 304.076 209.068 303 213z"/>
<path style="fill:#a448f1; stroke:none;" d="M85 211C78.1202 235.482 79.7911 260.148 82.8449 285C83.3808 289.361 85.4687 306.828 90.314 308.183C96.1776 309.823 103.379 300.747 108.019 298.304C119.062 292.49 130.72 292.002 141.906 287.02C146.351 285.041 146.916 280.23 151 278L151 275L139 267L133 261C132.555 255.277 127.31 251.503 122 250C121.555 244.277 116.31 240.503 111 239C110.555 233.277 105.31 229.503 100 228L89 214L86 215L85 211z"/>
<path style="fill:#7e75f4; stroke:none;" d="M404 333L408 318L405 318C403.915 311.048 397.099 308.765 392.223 304.495C384.363 297.613 378.14 280.414 367 278L367 271C362.153 272.352 362.534 269.548 358.701 267.742C351.561 264.376 344.796 265.446 344 255C338.024 254.166 333.47 250.102 333 244L322 239L317 224L306 222L307 216C302.942 217.358 294.55 218.905 291.509 221.603C285.369 227.051 282.824 239.953 277.988 247.015C275.198 251.088 266.656 257.853 270.032 263.486C281.789 283.102 300.837 274.493 317.997 281.093C326.199 284.248 332.324 291.814 340.015 295.951C353.644 303.283 367.943 308.627 381.001 317.173C388.518 322.093 395.149 330.626 404 333z"/>
<path style="fill:#ecd3c4; stroke:none;" d="M276 217L276 218L287 219L287 217L276 217z"/>
<path style="fill:#c599f8; stroke:none;" d="M82 220L82 224L83 224L82 220z"/>
<path style="fill:#67301e; stroke:none;" d="M237 220L237 222L241 222L241 220L237 220z"/>
<path style="fill:#a57863; stroke:none;" d="M229 222C225.65 235.924 207.152 222.9 207 241L199 235L199 239L207 244L208 237L217 234L216 239C232.719 239 245.519 238.155 261 245L261 238C271.519 240.194 263.449 249.315 263 256C269.25 254.984 273.85 247.927 275 242L269 242C267.167 233.212 256.162 235.367 258 224L246 224L246 225L250 225L248 229C248 225.897 237.302 219.922 236 226L229 222z"/>
<path style="fill:#885e46; stroke:none;" d="M182 230C182.237 235.414 185.162 239.779 185.643 245.004C186.501 254.329 182.398 263.344 192 270L192 280L200 286L214 286L214 289C218.44 289 228.897 290.149 230 285L240 284L238 281C243.968 279.715 252.807 276.158 255 270L259 271L265 256C261.046 250.239 273.333 239.42 261 238L261 245C247.266 236.077 231.573 239 216 239L217 234L208 237L207 244L199 239L200 236L193 234L193 240L182 230z"/>
<path style="fill:#d9b3f5; stroke:none;" d="M80 232L80 239L81 239L80 232z"/>
<path style="fill:#79392e; stroke:none;" d="M218 240C220.272 246.809 224.854 242.887 230.015 243.263C239.44 243.95 248.748 247.796 258 249L258 246L218 240z"/>
<path style="fill:#9f7053; stroke:none;" d="M213 242L213 246L209 246L218 263L221 263C222.012 269.064 229.642 269.528 235 269.91C247.503 270.801 256.038 261.157 259 250L233.996 243.866L213 242z"/>
<path style="fill:#5c4133; stroke:none;" d="M188 245C189.441 252.284 193.877 265.73 202 266L207 274C223.004 277.615 245.611 284.298 257 267L233 276C230.576 269.107 221.522 274.371 216.039 271.573C204.047 265.452 199.938 251.838 188 245z"/>
<path style="fill:#957a8a; stroke:none;" d="M270 250L264 260L272 250L270 250z"/>
<path style="fill:#756276; stroke:none;" d="M165 268L169 270L176 255L165 268z"/>
<path style="fill:#814c34; stroke:none;" d="M233 255L233 260L239 260L240 255L233 255z"/>
<path style="fill:#5e3b2b; stroke:none;" d="M175 259C168.291 269.278 175.875 287.522 163 295C162.899 299.929 161.282 304.077 166 307L164 302L171 304L170 308L178 310C174.108 301.221 173.509 285.554 174.192 275.996C174.605 270.219 177.381 264.675 175 259z"/>
<path style="fill:#d66684; stroke:none;" d="M264 260C264.903 265.676 270.146 269.43 275 272L264 260z"/>
<path style="fill:#da4256; stroke:none;" d="M263 262L261 271L266 272C258.161 284.448 267.5 291.968 280 293L272 289L272 285C275.49 284.886 278.07 284.909 278 281L281 280L263 262z"/>
<path style="fill:#ac8161; stroke:none;" d="M261 264L259 271L255 270C251.67 275.648 244.097 279.143 238 281L240 284L230 285L230 289C223.781 289.803 212.101 293.326 208 287L189 284L188 312L183 311L185 315L183 318L185 316L186 316L187 316L190 318L190 322L195 323L194 327C201.978 325.835 210.16 318.076 217 313.796C233.305 303.592 256.608 297.569 260.166 275C260.767 271.19 262.446 267.714 261 264z"/>
<path style="fill:#977ee0; stroke:none;" d="M269 264C279.199 278.664 288.964 278.777 305 281C313.989 276.067 326.585 290.674 335 293C330.264 285.565 315.821 277.676 306.961 277.056C300.821 276.625 296.203 279.666 290 277.714C280.997 274.88 277.214 267.193 269 264z"/>
<path style="fill:#b8c7f3; stroke:none;" d="M423 264L423 273L424 273L423 264z"/>
<path style="fill:#e3bbfb; stroke:none;" d="M80 267L80 275L81 275L80 267z"/>
<path style="fill:#382216; stroke:none;" d="M169 267L168 274L163 273L162 274L166 277L166 278L163 278L164 284L170 288L172 267L169 267z"/>
<path style="fill:#4a3a4f; stroke:none;" d="M164 269L143 290L154 287L152 285L159 283L163 277L162 274L163 273L168 274L164 269z"/>
<path style="fill:#880e16; stroke:none;" d="M261 271L264 274L263 271L261 271z"/>
<path style="fill:#b32e3a; stroke:none;" d="M260 272L262 287L263 287L266 272L260 272z"/>
<path style="fill:#621f15; stroke:none;" d="M260 276C258.689 282.386 253.464 295.382 260 300L260 292L258 292L262 287L260 276z"/>
<path style="fill:#c86592; stroke:none;" d="M278 276L284 281L278 276z"/>
<path style="fill:#6f6453; stroke:none;" d="M159 283L153 284C155.336 285.586 157.008 286.197 159 284L160 284L159 289C163.366 291.841 161.095 297.411 161 302L163 302L165 295L164 287L167 289L168 289L164 284L166 278C161.731 276.397 159.652 278.91 159 283z"/>
<path style="fill:#78619e; stroke:none;" d="M281 277L281 278L285 282L295 281L281 277z"/>
<path style="fill:#5f666b; stroke:none;" d="M299 295L298 298C304.614 299.227 314.775 292.787 315 286L314 286L314 290L309 280C302.928 278.932 290.619 292.181 299 295z"/>
<path style="fill:#ed4c66; stroke:none;" d="M278 281L279 284L272 285L272 289L280 291L278 294C292.078 301.221 292.192 279.137 278 281z"/>
<path style="fill:#e6e7e3; stroke:none;" d="M298 281L299 284L295 290L304 280L298 281z"/>
<path style="fill:#b44356; stroke:none;" d="M308 281L308 282C311.643 284.651 316.304 287.411 313 292L313 293L317 293C317.264 286.312 316.254 280.454 308 281z"/>
<path style="fill:#515853; stroke:none;" d="M286 281C287.328 286.808 292.163 292.625 284 295L284 297L289 301C293.656 297.809 296.128 287.589 297 282L286 281z"/>
<path style="fill:#ae6096; stroke:none;" d="M312 281L312 282L323 291L327 290C323.313 285.291 317.897 282.064 312 281z"/>
<path style="fill:#d49ef1; stroke:none;" d="M82 282L82 286L83 286L82 282z"/>
<path style="fill:#a3a3aa; stroke:none;" d="M297 282L297 284L299 284L299 282L297 282z"/>
<path style="fill:#b0bef0; stroke:none;" d="M421 282L421 286L422 286L421 282z"/>
<path style="fill:#a54041; stroke:none;" d="M257 283L254 293C257.501 290.677 258.586 286.899 257 283z"/>
<path style="fill:#65343d; stroke:none;" d="M309 283L314 290L309 283z"/>
<path style="fill:#584a36; stroke:none;" d="M159 284L152 285L152 286L153 288L158 288L158 289C152.637 289.762 148.779 292.889 147 298L161 292L161 296L162 296C162 292.637 162.716 289.796 159 289L159 284z"/>
<path style="fill:#372327; stroke:none;" d="M260 286L258 292L260 292L261 311L257 312L257 317L266 317L262 323L271 321L268 320L269 317C265.441 314.15 263.52 311.707 267 308C257.674 302.187 267.307 291.275 260 286z"/>
<path style="fill:#e84c66; stroke:none;" d="M317 293L307 294C308.079 304.433 318.843 304.692 321.786 294.829C323.986 287.46 317.297 283.961 317 293z"/>
<path style="fill:#a28877; stroke:none;" d="M164 287L165 295L167 287L164 287z"/>
<path style="fill:#565353; stroke:none;" d="M263 287C262.771 292.326 260.338 299.644 262.603 304.74C266.01 312.403 280.254 311.748 287 313L287 307C275.484 306.959 269.402 300.029 268 289L263 287z"/>
<path style="fill:#1b1814; stroke:none;" d="M142 290L141 296L143 296C139.854 301.065 138.439 305.136 132 306L134 318L135 318L140 319L141 314L150 312L147 303L149 303L151 309L154 307L154 306L154 305C151.47 301.297 153.987 298.999 158 299L156 304L161 306L162 306L161 292L147 298C149.416 293.446 152.951 290.258 158 289L142 290z"/>
<path style="fill:#ac6bd5; stroke:none;" d="M100 305L135 290C126.697 286.811 103.912 296.985 100 305z"/>
<path style="fill:#cfc8bd; stroke:none;" d="M115 298L115 299L124 300L128 294L129 294L130 294L130 296L138 289L115 298z"/>
<path style="fill:#743738; stroke:none;" d="M253 289L250 292L250 295L250 296L253 297L252 300L258 300L257 291L256 291L254 293L253 289z"/>
<path style="fill:#cacbc4; stroke:none;" d="M294 289L296 295L294 289z"/>
<path style="fill:#756a67; stroke:none;" d="M140 290L140 293L142 293L142 290L140 290z"/>
<path style="fill:#dcccd3; stroke:none;" d="M268 290L269 295L274 296L272 290L268 290z"/>
<path style="fill:#e7e3ce; stroke:none;" d="M324 290L327 299L328 295L329 295L334 304C331.739 306.047 332.64 307.486 335 309L337 304C336.312 296.561 331.751 291.128 324 290z"/>
<path style="fill:#a09486; stroke:none;" d="M132 297L142 294L142 293L140 291L132 297z"/>
<path style="fill:#d3968a; stroke:none;" d="M322 291L322 295L323 295L322 291z"/>
<path style="fill:#d1cdac; stroke:none;" d="M323 291C320.825 302.216 321.726 301.057 327 311L330 310L329 313L334 304L329 295L328 295L327 299L323 291z"/>
<path style="fill:#b9b4dd; stroke:none;" d="M328 291L328 292L344 300L344 299L328 291z"/>
<path style="fill:#fffbfa; stroke:none;" d="M272 292L274 296L271 294L270 294C270.355 304.929 278.978 306 288 306L288 297L272 292z"/>
<path style="fill:#e5abb3; stroke:none;" d="M273 292L273 293L276 293L273 292z"/>
<path style="fill:#71121d; stroke:none;" d="M232 306L232 307L235 307L238 316L242 316L240 310L243 310L243 304L252 293L232 306z"/>
<path style="fill:#fcf0d1; stroke:none;" d="M292 293L294 298L298 295L292 293z"/>
<path style="fill:#a693d8; stroke:none;" d="M335 293C338.495 297.604 343.241 298.648 347.985 301.595C360.638 309.454 374.067 314.351 386.296 323.545C391.884 327.746 397.303 335.268 405 334L405 333L382 317.173L335 293z"/>
<path style="fill:#b9b09e; stroke:none;" d="M128 294L125 296L125 297L128 297L128 301L135 299L130 294L128 294z"/>
<path style="fill:#6d645b; stroke:none;" d="M138 294L135 302L138 298L143 296L142 294L138 294z"/>
<path style="fill:#342815; stroke:none;" d="M137.667 295.333L138.333 295.667L137.667 295.333z"/>
<path style="fill:#a8a3ab; stroke:none;" d="M269 295L269 299L270 299L269 295z"/>
<path style="fill:#d1c08c; stroke:none;" d="M298 295L293 297L297 306L288 307L287 307L286 317L298 319L298 318L296 317L301 312L304 313L305 311L305 310L303 310L302 304L301 304L298 309L300 303L296 304L299 299L298 295z"/>
<path style="fill:#c5606d; stroke:none;" d="M305 295L302 299L308 304L320 305L320 298L319 298C315.512 305.499 308.844 301.133 307 295L305 295z"/>
<path style="fill:#d73653; stroke:none;" d="M248 296L245 306L247 311C254.021 310.445 257.814 309.667 258 302L252 304L253 296L248 296z"/>
<path style="fill:#a89477; stroke:none;" d="M125 297L124 301L128 297L125 297z"/>
<path style="fill:#787055; stroke:none;" d="M108 301L108 302L112 305L105 309L108 312L109 312L109 309L116 315L128 313L124 310C124.769 305.14 127.235 303.533 132 303L131 300L108 301z"/>
<path style="fill:#9b957d; stroke:none;" d="M129 301L133 302L133 298L129 301z"/>
<path style="fill:#423322; stroke:none;" d="M138 298L135 302L134 299C130.003 303.368 124.514 303.344 124 310L128 313L108 313L108 314L109 323L112 330L113 330L114 321L115 321L115 324L116 324L116 321L132 320L129 315L134 317L132 306C137.197 305.65 139.381 303.924 141 299L138 298z"/>
<path style="fill:#434235; stroke:none;" d="M154 305L154 306L154 307L151 309L149 303L147 303L149 313L154 313L156 310L155 307L164 312C162.406 307.343 161.231 304.416 156 304L158 299C153.984 298.285 150.23 301.695 154 305z"/>
<path style="fill:#cfcbbc; stroke:none;" d="M288 298L288 305L292 301L288 298z"/>
<path style="fill:#f8d0c9; stroke:none;" d="M297 299L304 300L303 303L308 304C305.905 298.055 302.443 299.108 297 299z"/>
<path style="fill:#f2e6c3; stroke:none;" d="M291 299L294 305L287 306L288 309L297 306L295 299L291 299z"/>
<path style="fill:#a7a47a; stroke:none;" d="M299.667 299.333L300.333 299.667L299.667 299.333z"/>
<path style="fill:#b28086; stroke:none;" d="M252 300L252 301L259 302L252 300z"/>
<path style="fill:#8e3741; stroke:none;" d="M259 300L258 308L259 308L259 300z"/>
<path style="fill:#82723c; stroke:none;" d="M296 300L296 304L299 303L296 300z"/>
<path style="fill:#9f8f58; stroke:none;" d="M303 300L298 301L300 305L298 309L303 300z"/>
<path style="fill:#c7c2a0; stroke:none;" d="M336 301L337 304L334 312L352 313C350.034 306.775 343.46 308 338 308L341 301L336 301z"/>
<path style="fill:#cfcac6; stroke:none;" d="M338 308C343.993 307.946 351.212 304.927 355 311L361 310L361 308C353.595 307.012 338.897 291.761 338 308z"/>
<path style="fill:#f9bec3; stroke:none;" d="M252 304L258 302C255.12 300.902 253.65 301.445 252 304z"/>
<path style="fill:#583c56; stroke:none;" d="M99 309L112 305C108.244 299.706 100.649 303.858 99 309z"/>
<path style="fill:#917865; stroke:none;" d="M164 302L171 306L164 302z"/>
<path style="fill:#a09278; stroke:none;" d="M291 302L291 305L294 305L294 302L291 302z"/>
<path style="fill:#daabf0; stroke:none;" d="M87.3333 303.667L87.6667 304.333L87.3333 303.667z"/>
<path style="fill:#d1d4b6; stroke:none;" d="M302 303L303 310L306 310L306 309L302 303z"/>
<path style="fill:#f1f6e1; stroke:none;" d="M303 303L303 304L305 309C308.804 306.23 307.176 303.695 303 303z"/>
<path style="fill:#464a48; stroke:none;" d="M309 303L304 313L306 316C311.128 316.774 317.379 319.847 319 325L320 325L321 321L323 324L325 313L322 314L320 320L321 317L318 313C323.978 307.565 312.88 304.038 309 303z"/>
<path style="fill:#af242f; stroke:none;" d="M243 304L243 310L240 310L240 314L254 311L254 310L247 311L243 304z"/>
<path style="fill:#c5bbb6; stroke:none;" d="M308 304L308 307L309 307L308 304z"/>
<path style="fill:#999e93; stroke:none;" d="M317 305L317 306L320 313L321 313L323 309L324 309L326 317L330 317C325.963 310.888 326.099 303.808 317 305z"/>
<path style="fill:#877e6b; stroke:none;" d="M326 304L326 305L329 305L326 304z"/>
<path style="fill:#b57bca; stroke:none;" d="M89 310C94.1024 311.244 97.2279 309.301 100 305L89 310z"/>
<path style="fill:#6b6c65; stroke:none;" d="M162 305L164 312L165 312L162 305z"/>
<path style="fill:#1c1511; stroke:none;" d="M166 305L164 306L165 312L159 310C161.2 315.058 166.841 313.801 164 320L170 319L173 322L170 329L183 326L181.745 312.318L166 305z"/>
<path style="fill:#b4b2a8; stroke:none;" d="M278 306L278 307L287 307L278 306z"/>
<path style="fill:#d4d9d2; stroke:none;" d="M320 306L322 309L320 306z"/>
<path style="fill:#eae5d2; stroke:none;" d="M345 307L345 308L352 313C347.667 311.424 338.428 309.224 335 313L329 313L330 310C327.105 311.927 327.18 313.987 330 316L330 317L327 319L342 316L340 320C349.613 318.451 352.466 313.746 363 317C361.684 312.96 359.102 311.601 355 311L355 308L345 307z"/>
<path style="fill:#9e957b; stroke:none;" d="M98 307L94 310L94 311L98 313L105 307L98 307z"/>
<path style="fill:#7c6b56; stroke:none;" d="M155 307L156 311L158 311L159 310L159 308L155 307z"/>
<path style="fill:#161012; stroke:none;" d="M198 328L201 329L202 332L200 334L200 335L200 342L204 349L199 346L201 352L204 351L210 355L210 356L210 357L208 359L212 359L212 361L208 361L208 362L212 362L212 363L206 363L206 364L210 364L210 366L204 367L204 368C210.116 367.874 217.367 365.76 221 372L216 371L222 374L227 378L226 375L231 374L239 386L232 383C235.363 388.881 238.063 397.625 227 395L229 402L227 402C224.759 395 217.712 389.425 212 385C212.568 388.408 212.823 390.706 210 390L210 394C207.471 390.822 208.258 388.764 211 386L208 385C204.759 391.737 206.494 395.714 213 399L213 400L211 403L214 404L211 405L211 406L212 410C215.75 412.577 216.851 414.451 217 419L220 422L238 419.044L252.791 419.961L269 406C262.995 411.535 256.284 416.216 256 425L270 424L270 423L267 421C298.052 424.092 328.642 408.594 354 391.46C363.515 385.031 376.018 376.683 381 366L368 365L368 366L371 368C359.381 368.539 354.253 378.428 344.999 383.711C341.567 385.671 335.803 388.652 334.158 382.941C333.148 379.434 334.924 374.67 335 371C329.5 368.798 329.02 365.538 329 360L305 346L305 347L308 350C313.944 353.278 312.062 361.62 305 361L304 364L286 356L285 356L283 358L283 359C287.985 361.839 289.522 367.953 284 371L285 374C278.251 377.294 276 376.619 276 368L268 371L266 381L273 380C268.467 383.434 262.29 381.669 257 381C256.863 375.176 250.839 367.443 257 364L262 351L253 354L254 352C249.943 353.435 247.419 353.486 246 349L242 350C236.959 341.227 227.931 335.802 221.148 328.812C219.018 326.616 217.167 323.128 219.608 320.407C221.864 317.893 228.725 317.864 232 317C235.796 322.878 245.08 320.467 251 320L251 319C241.338 318.999 237.4 316.786 235 307C224.262 307.973 202.996 318.139 198 328z"/>
<path style="fill:#2a0e0a; stroke:none;" d="M257 308L247 313L247 314L258 319L257 312L261 311L261 309L257 308z"/>
<path style="fill:#5b5140; stroke:none;" d="M101 319L100 322L101 327L108 330L111 328L109 323L108 314L108 313L113 314L112 309L109 312L108 312L108 309C103.562 309.485 91.5835 316.982 101 319z"/>
<path style="fill:#1a1212; stroke:none;" d="M264 309L264 314L271 316L270 312L272 314L277 316L278 316L279 314L280 314L280 316L281 316L282 316L285 312L264 309z"/>
<path style="fill:#817e75; stroke:none;" d="M323 309L325 319L326 319C325.997 314.94 326.507 311.529 323 309z"/>
<path style="fill:#a5a08f; stroke:none;" d="M332 309L335 313L335 309L332 309z"/>
<path style="fill:#c07cae; stroke:none;" d="M361 309L361 311L367 311L361 309z"/>
<path style="fill:#2d270c; stroke:none;" d="M153 310L154 313L148 317L153 324L151 320L155 313L159 315L153 310z"/>
<path style="fill:#4d4836; stroke:none;" d="M158 310L161 316L161 317L161 318L159 324L160 324L163 320L165 331C169.099 328.49 171.989 326.981 173 322L170 319L164 320L167 318L158 310z"/>
<path style="fill:#5a3b27; stroke:none;" d="M217 313L217 314L226 311L217 313z"/>
<path style="fill:#a8666c; stroke:none;" d="M356 310L356 311L364 314L356 310z"/>
<path style="fill:#b9b093; stroke:none;" d="M90 311L94 317L98 313L96 315L95 315L94 311L90 311z"/>
<path style="fill:#786d54; stroke:none;" d="M93 312L96 315L97 311L93 312z"/>
<path style="fill:#8d826e; stroke:none;" d="M112 311L116 315L112 311z"/>
<path style="fill:#f6ebc4; stroke:none;" d="M291 313L291 314L297 311L291 313z"/>
<path style="fill:#cbc6bf; stroke:none;" d="M321 311L320 315L323 311L321 311z"/>
<path style="fill:#cc6797; stroke:none;" d="M363 311L363 317L364 317C371.42 310.029 382.78 324.253 389.015 328.653C392.032 330.782 395.779 332.391 397 336L402 338C402.998 333.647 396.105 330.892 393.054 328.671C383.886 321.998 375.076 311.351 363 311z"/>
<path style="fill:#50493b; stroke:none;" d="M270 312L271 316L266 314L269 317L268 320L271 322L280 323L280 324L276 324L276 325L281 325L279 334L285 334L281 327L283 323L286 324L280 314L278 316L277 316L270 312z"/>
<path style="fill:#c8c4ae; stroke:none;" d="M301 312L296 317L298 321L293 323L293 324L288 324L288 325C291.996 325.959 298.195 327.545 301 324L295 324L295 323L303 322L300 319L300 318L311 317L311 316L301 317L301 312z"/>
<path style="fill:#332729; stroke:none;" d="M301 317C304.526 316.436 305.836 315.642 306 312L301 317z"/>
<path style="fill:#6a5334; stroke:none;" d="M143 316L151 317L151 313L143 316z"/>
<path style="fill:#534839; stroke:none;" d="M155 313L151 322L154 321L155 325L156 325L154 318L157 313L155 313z"/>
<path style="fill:#998864; stroke:none;" d="M285 313L285 317L286 317L285 313z"/>
<path style="fill:#9d9990; stroke:none;" d="M318 313L321 317L320 320L323 316L318 313z"/>
<path style="fill:#c9c6bd; stroke:none;" d="M91 317L92 317L94 315C91.8603 313.882 91.4732 314.749 91 317z"/>
<path style="fill:#897f6b; stroke:none;" d="M141 314L140 319L135 316L133 318L135 324L132 327L135 329L139 328L140 332L139 338C130.771 336.608 126.52 335.764 124 345L130 344L130 345L127 350L131 346L132 346L133 349L136 350L137 350L139 346L127 342C132.2 336.169 139.143 340.668 146 340L145 337L149 336L147 341L151 341L151 342L141 343L141 344L144 346L159 337L154 338L152 333L155 332L155 331L152 330C153.728 322.781 146.761 317.109 141 314z"/>
<path style="fill:#7d7460; stroke:none;" d="M156 314L161 318L156 314z"/>
<path style="fill:#733e35; stroke:none;" d="M242 314L242 316L249 315L242 314z"/>
<path style="fill:#3b2d12; stroke:none;" d="M280 316L280 317L288 318L288 317L285 314L280 316z"/>
<path style="fill:#9d8a56; stroke:none;" d="M287.667 314.333L288.333 314.667L287.667 314.333z"/>
<path style="fill:#c5bba1; stroke:none;" d="M340 320C342.575 323.208 345.626 321.248 349 320L348 317L357 321L363 318L363 317L360 314L340 320z"/>
<path style="fill:#e84c5a; stroke:none;" d="M365 314L373 328C378.309 329.463 386.216 331.346 388 337L380 340L380 341L398 335C390.988 327.348 375.605 314.125 365 314z"/>
<path style="fill:#666658; stroke:none;" d="M92 315L97 330L98 330L98 326L102 326L101 319L98 316L92 315z"/>
<path style="fill:#5d503d; stroke:none;" d="M129 315L132 326L133 326L135 324L134 317L129 315z"/>
<path style="fill:#60514a; stroke:none;" d="M182 315L182 318L183 318L182 315z"/>
<path style="fill:#976e5a; stroke:none;" d="M238 316C241.158 320.47 246.322 318.454 251 318C248.243 313.797 242.499 315.963 238 316z"/>
<path style="fill:#5f3f26; stroke:none;" d="M185 316L182 319L185 320C184.034 325.743 187.451 326.35 192 324L192 323L190 318L187 316L185 316z"/>
<path style="fill:#665d4d; stroke:none;" d="M251 316L248 318L251 319L251 320L236 320L236 321L242 322L240 324L240 325L242 327L243 327C246.684 324.202 251.447 325.564 252 320L264 320L264 321L261 323L266 317L262 319L251 316z"/>
<path style="fill:#9c917b; stroke:none;" d="M258 316L262 319L258 316z"/>
<path style="fill:#98885f; stroke:none;" d="M288 317L288 318L292 318L288 317z"/>
<path style="fill:#dbd6c2; stroke:none;" d="M326 317C324.425 320.738 323.421 323.406 327 326L327 327L323 326L324 332L322 330L321 330C322.916 335.809 326.478 332.538 327 328L337 331L337 330L332 328L332 327L344 324L344 323L340 322L342 316L326 317z"/>
<path style="fill:#817756; stroke:none;" d="M353 316L353 318L355 318L355 316L353 316z"/>
<path style="fill:#b5686d; stroke:none;" d="M361 318L361 319L373 325L366 316L361 318z"/>
<path style="fill:#b3aea8; stroke:none;" d="M92.3333 317.667L92.6667 318.333L92.3333 317.667z"/>
<path style="fill:#291d09; stroke:none;" d="M156 317L159 321L156 317z"/>
<path style="fill:#8c724d; stroke:none;" d="M227 318L227 319L231 320L231 321L228 322L238 322L238 321L232 317L227 318z"/>
<path style="fill:#ebe7d6; stroke:none;" d="M307 317L307 320L312 321L310 324L318 324C316.42 319.06 311.909 317.353 307 317z"/>
<path style="fill:#f5e9c5; stroke:none;" d="M348 317L355 321L355 320L348 317z"/>
<path style="fill:#453f2d; stroke:none;" d="M142 318L142 322L144 320L147 321L142 318z"/>
<path style="fill:#908575; stroke:none;" d="M154 318L159 324L154 318z"/>
<path style="fill:#6f6e56; stroke:none;" d="M218 327L219 327L219 321L225 320C219.306 316.354 218.055 322.324 218 327z"/>
<path style="fill:#847c6a; stroke:none;" d="M276 318L279 320L276 318z"/>
<path style="fill:#aea791; stroke:none;" d="M285 318L293 324L293 323L291 322L293 319L285 318z"/>
<path style="fill:#ede0bb; stroke:none;" d="M289 318L289 319L294 319L289 318z"/>
<path style="fill:#f3e6c3; stroke:none;" d="M300 318L300 319L304 319L300 318z"/>
<path style="fill:#8b8b7f; stroke:none;" d="M335 318L335 319L339 319L335 318z"/>
<path style="fill:#a9a287; stroke:none;" d="M360 318L344 323L344 324L363 322L363 321L360 318z"/>
<path style="fill:#c3b7a0; stroke:none;" d="M233 332L230 328L244 330C242.476 326.36 240.921 325.309 237 325L237 326L240 326C236.142 329.395 229.772 326.889 225 326L225 323L229 323L231 321C217.792 312.198 217.498 340.647 233 332z"/>
<path style="fill:#726348; stroke:none;" d="M293 319L293 321L298 321L298 319L293 319z"/>
<path style="fill:#86795f; stroke:none;" d="M303 319L303 322L295 323L295 324L307 324L304 321L307 320L303 319z"/>
<path style="fill:#d4c8ab; stroke:none;" d="M361 321L365 320L361 321z"/>
<path style="fill:#1e1818; stroke:none;" d="M116 321L110.743 350L125 369L126 369L133 357L119 356L124 353L124 352L118 351L118 348C123.285 348.65 125.745 348.34 130 345L130 344L121 346L124 344C125.396 335.42 132.525 337.36 139 338L137 332C129.958 331.258 131.888 325.434 132 320L116 321z"/>
<path style="fill:#a9a590; stroke:none;" d="M144 320L142 322L142 323L147 326L144 320z"/>
<path style="fill:#28210f; stroke:none;" d="M162 320L160 324L156 323L163 328L162 320z"/>
<path style="fill:#7e786a; stroke:none;" d="M182 320L183 326C180.258 327.572 181.159 329.391 184 330L184 329L182 327L185 326L185 320L182 320z"/>
<path style="fill:#8c8475; stroke:none;" d="M252 320L252 321L257 323L257 322L252 320z"/>
<path style="fill:#5d4a2e; stroke:none;" d="M255 320L257 323L243 327L256 334L257 331C260.589 331.63 262.744 332.094 265 329L258 326C258.579 322.577 258.397 321.135 255 320z"/>
<path style="fill:#9b9072; stroke:none;" d="M258 320L262 324L264 321L258 320z"/>
<path style="fill:#5b4f2e; stroke:none;" d="M304 320L312 326L312 327L303 328L305 330L305 331L301 331C301.873 335.616 301.731 340.357 306 343L303 345L308 346L307 333C311.935 333.017 316.39 332.94 315 339L319 340L317 334L318 331L314 326L319 328C317.75 323.553 313.912 324.738 310 324L312 322L304 320z"/>
<path style="fill:#929383; stroke:none;" d="M309.667 320.333L310.333 320.667L309.667 320.333z"/>
<path style="fill:#84734f; stroke:none;" d="M344 323L349 321L344 323z"/>
<path style="fill:#7d5e54; stroke:none;" d="M360 322L360 323L367 324L368 320L360 322z"/>
<path style="fill:#231f13; stroke:none;" d="M95.3333 321.667L95.6667 322.333L95.3333 321.667z"/>
<path style="fill:#8f8a83; stroke:none;" d="M114 321L113 333L114 333L114 321z"/>
<path style="fill:#a69c82; stroke:none;" d="M152 321L151 325L156 326L152 321z"/>
<path style="fill:#989676; stroke:none;" d="M219 324L223 321L219 324z"/>
<path style="fill:#5e4b37; stroke:none;" d="M230 322L231 326L237 326L235 322L230 322z"/>
<path style="fill:#42311e; stroke:none;" d="M245 322L245 323L250 321L245 322z"/>
<path style="fill:#f6eec5; stroke:none;" d="M270 324L278 323C274.88 321.169 272.202 320.922 270 324z"/>
<path style="fill:#a49988; stroke:none;" d="M318 321L317 325L318 321z"/>
<path style="fill:#3f3019; stroke:none;" d="M321 321L319 328L314 326L318 331L317 334L319 341L327 343L324 342L324 360L329 360C329.004 365.584 328.88 369.496 335 371C335.123 374.714 335.424 376.563 339 378C337.094 372.888 336.401 368.243 331 366L332 361L337 361L332 350L335 353L337 351C339.357 353.447 341.023 353.433 342 350L341 350L340 352C338.55 347.986 337.362 346.348 333 346L329 350L332 347L332 346L329 346L330 342L320 330C324.273 329.08 323.077 323.877 321 321z"/>
<path style="fill:#71634f; stroke:none;" d="M190 322L190 323L192 326L188 326L185 330L191 333L191 329L192 329L192 332C194.842 331.065 196.617 329.372 194 327L195 323L190 322z"/>
<path style="fill:#371c0e; stroke:none;" d="M233 322L233 323C236.552 324.468 239.545 325.431 242 322L233 322z"/>
<path style="fill:#9d8d79; stroke:none;" d="M267 323L267 324L272 325L272 324L270 322L267 323z"/>
<path style="fill:#bbb5a5; stroke:none;" d="M265 323L266 327L262 328L262 329L270 331L270 326L274 326L274 330L281 325L276 325L276 324L280 324L265 323z"/>
<path style="fill:#b89970; stroke:none;" d="M286 324L283 323C283.412 326.594 280.769 331.089 285 332L286 338L281 339L284 345L285 345L285 339L290 341L289 343L292 343L292 344L287 346L288 350L288 351C295.65 349.452 297.066 344.024 296 337L302 336L302 328L288 325L290 322L286 324z"/>
<path style="fill:#5b4d41; stroke:none;" d="M343 327L358 330.841L370 326L370 322L358 330L360 324C355.287 323.98 344.461 320.18 343 327z"/>
<path style="fill:#938461; stroke:none;" d="M353 322L353 324L360 326C360.953 321.758 356.15 322.037 353 322z"/>
<path style="fill:#e4d3ae; stroke:none;" d="M360 328L366 322C362.303 323.034 361.034 324.303 360 328z"/>
<path style="fill:#867867; stroke:none;" d="M106 323L106 325L108 325L108 323L106 323z"/>
<path style="fill:#352b12; stroke:none;" d="M147 323L150 325L147 323z"/>
<path style="fill:#817953; stroke:none;" d="M225 323L225 326L229 325L225 323z"/>
<path style="fill:#9f917f; stroke:none;" d="M228 323L227 327L232 327L231 323L228 323z"/>
<path style="fill:#7d745e; stroke:none;" d="M258 326L266 327L266 325C262.685 323.557 260.215 322.794 258 326z"/>
<path style="fill:#453824; stroke:none;" d="M301 323L309 326L309 324L301 323z"/>
<path style="fill:#b6ad9a; stroke:none;" d="M311 324L311 325L316 324L311 324z"/>
<path style="fill:#858065; stroke:none;" d="M323 323L322 327L327 327L327 326L323 323z"/>
<path style="fill:#95917b; stroke:none;" d="M326.667 323.333L327.333 323.667L326.667 323.333z"/>
<path style="fill:#7e7a63; stroke:none;" d="M330 323L330 325L333 325L333 323L330 323z"/>
<path style="fill:#c2bcb5; stroke:none;" d="M95.3333 324.667L95.6667 325.333L95.3333 324.667z"/>
<path style="fill:#352406; stroke:none;" d="M190 324L190 326L192 326L192 324L190 324z"/>
<path style="fill:#36220a; stroke:none;" d="M253 327L257 324L253 327z"/>
<path style="fill:#7a7361; stroke:none;" d="M301.333 324.667L301.667 325.333L301.333 324.667z"/>
<path style="fill:#504f40; stroke:none;" d="M337 327L340 324L337 327z"/>
<path style="fill:#434b53; stroke:none;" d="M370 324C363.119 329.53 355.865 332.994 347 333L347 334C354.784 336.662 362.057 333.659 365 344L388 337C386.96 331.007 375.114 327.148 370 324z"/>
<path style="fill:#311f07; stroke:none;" d="M232 325L240 328L240 326L232 325z"/>
<path style="fill:#3a1e08; stroke:none;" d="M243 325L243 327L249 326L243 325z"/>
<path style="fill:#d0bb94; stroke:none;" d="M284 327L287 325L284 327z"/>
<path style="fill:#978c71; stroke:none;" d="M336 325L337 328L337 329L335 329L335 330L338 331L336 325z"/>
<path style="fill:#ada88c; stroke:none;" d="M340 325L340 326L343 327L340 325z"/>
<path style="fill:#8c8a84; stroke:none;" d="M353 326L353 327L358 326L353 326z"/>
<path style="fill:#1b1312; stroke:none;" d="M98 326C98.4253 334.199 103.849 340.248 108 347L109 347L112 327L108 330L98 326z"/>
<path style="fill:#685b3b; stroke:none;" d="M131 326C131.329 330.254 132.509 332.435 137 332L137 336L138 336L140 332L139 328L135 329L131 326z"/>
<path style="fill:#54513a; stroke:none;" d="M140 326L140 328L143 328L143 326L140 326z"/>
<path style="fill:#5a4e39; stroke:none;" d="M153 326L155 331L155 326L153 326z"/>
<path style="fill:#7d7260; stroke:none;" d="M155 326L157 331L156 327L160 327L159 331L160 331L162 326L155 326z"/>
<path style="fill:#aa9b88; stroke:none;" d="M182 329L188 329C187.141 324.993 183.577 325.809 182 329z"/>
<path style="fill:#a88c61; stroke:none;" d="M248 329L252 329L251 326L248 329z"/>
<path style="fill:#928868; stroke:none;" d="M270 326L270 331L264 332L268 331L268 334L278 339L279 334L273 331C276.984 332.809 279.227 332.616 280 328L274 330L274 326L270 326z"/>
<path style="fill:#e3e4d5; stroke:none;" d="M298 326C299.459 328.455 300.43 328.289 302 326L298 326z"/>
<path style="fill:#887a64; stroke:none;" d="M301 327L300 332L305 331L305 330L303 328L309 327L301 327z"/>
<path style="fill:#b8ac9b; stroke:none;" d="M309 326L309 327L312 327L309 326z"/>
<path style="fill:#e4e3ca; stroke:none;" d="M338 330L343 327C339.863 326.506 339 326.964 338 330z"/>
<path style="fill:#c3b698; stroke:none;" d="M340 332L349 327C344.664 325.499 341.524 327.978 340 332z"/>
<path style="fill:#b4a387; stroke:none;" d="M359 326L358 330L361 329L359 326z"/>
<path style="fill:#463b27; stroke:none;" d="M156 327L157 331L159 331L160 327L156 327z"/>
<path style="fill:#938e79; stroke:none;" d="M161 327L163 330L162 333L164 335L165 335L161 327z"/>
<path style="fill:#726655; stroke:none;" d="M171 331L178 328C174.506 327.365 172.08 327.312 171 331z"/>
<path style="fill:#52493e; stroke:none;" d="M196 327C195.209 329.628 194.113 331.756 192 329L191 329L191 333L199 335L202 332L201 329L196 327z"/>
<path style="fill:#c2b07b; stroke:none;" d="M254 330L258 327L254 330z"/>
<path style="fill:#3f280a; stroke:none;" d="M281 329L284 327L281 329z"/>
<path style="fill:#cec49d; stroke:none;" d="M288 328L288 329L299 330L288 328z"/>
<path style="fill:#857e69; stroke:none;" d="M323 327L322 332L323 327z"/>
<path style="fill:#6c5d40; stroke:none;" d="M332 327L332 328L337 329L332 327z"/>
<path style="fill:#dcd3b4; stroke:none;" d="M344 328L344 329L350 332L347 330L347 329L353 330L344 328z"/>
<path style="fill:#382a1d; stroke:none;" d="M169 341L170 341L170 336L178 339C181.809 338.334 183.605 338.949 186 342L187 342L186 334L195 339L190 338L193 340L191 342L191 343L203 343L203 342L200 342L201 340L198 340C201.833 332.057 190.428 332.436 185 331L186 328C181.524 329.402 165.585 327.781 165.376 332.954C165.261 335.778 168.2 338.321 169 341z"/>
<path style="fill:#695b4e; stroke:none;" d="M230 331L231 331L233 329C230.86 327.882 230.473 328.749 230 331z"/>
<path style="fill:#6d5f49; stroke:none;" d="M236 328L236 329L239 329L236 328z"/>
<path style="fill:#aba38f; stroke:none;" d="M308 328L308 329L313 329L313 330L308 330L308 331L315 331L308 328z"/>
<path style="fill:#93805d; stroke:none;" d="M327 328L326 334C330.493 335.412 337.057 342.489 341 338L333 334L336 331L331 330L328 333L327 328z"/>
<path style="fill:#352f16; stroke:none;" d="M328 328L328 333L330 328L328 328z"/>
<path style="fill:#605237; stroke:none;" d="M147 329L152 333L147 329z"/>
<path style="fill:#291804; stroke:none;" d="M231 329L236 333L231 329z"/>
<path style="fill:#e3ddc6; stroke:none;" d="M308 329L308 330L313 330L308 329z"/>
<path style="fill:#8d7f5f; stroke:none;" d="M342 332L346 329L342 332z"/>
<path style="fill:#665d4c; stroke:none;" d="M347 329L347 330L349 333L357 333L347 329z"/>
<path style="fill:#84776f; stroke:none;" d="M102 330L105 332L102 330z"/>
<path style="fill:#74736e; stroke:none;" d="M112 330L109 349L110 349C111.443 342.909 115.412 335.989 112 330z"/>
<path style="fill:#a9a08b; stroke:none;" d="M160 330L153 332L153 333L159 332L158 334L161 334L160 330z"/>
<path style="fill:#604e39; stroke:none;" d="M161 330L161 334L152 333L154 338L167 338L163 330L161 330z"/>
<path style="fill:#6f614a; stroke:none;" d="M236 333L239 330L236 333z"/>
<path style="fill:#241b0a; stroke:none;" d="M239 330C240.912 332.921 242.696 332.69 246 332L239 330z"/>
<path style="fill:#c9b79f; stroke:none;" d="M247 331L247 332L252 332L247 331z"/>
<path style="fill:#5f5936; stroke:none;" d="M289 330L293 332L289 330z"/>
<path style="fill:#7e7563; stroke:none;" d="M320.333 330.667L320.667 331.333L320.333 330.667z"/>
<path style="fill:#1d1618; stroke:none;" d="M333 334L340 339L337 334L346 335L344 347L340 347L340 358L339 358L332 350L335 364L331 364L336 371C344.345 364.305 346.208 359.369 357 356C357.976 368.795 369.371 356.891 375 354L372 346L379 340L379 339L365 344C363.033 331.576 351.799 338.193 346 331L340 330L333 334z"/>
<path style="fill:#dbd4a3; stroke:none;" d="M353 330L353 331L358 332L353 330z"/>
<path style="fill:#665b49; stroke:none;" d="M252 331L253 335L250 337L245 333L250 333L250 332C245.949 332.098 243.135 332.345 241 336L248 338L246 340L250 343L251 343C254.131 338.638 255.567 336.53 255 331L252 331z"/>
<path style="fill:#aba09a; stroke:none;" d="M257 331L255 334L255 335L256 337L257 337L260 332L257 331z"/>
<path style="fill:#b3ab8a; stroke:none;" d="M266 331L267 336L271 335L271 334L268 334L268 331L266 331z"/>
<path style="fill:#bdb8a0; stroke:none;" d="M273 331C274.529 333.913 275.774 334.578 279 334L273 331z"/>
<path style="fill:#8f856a; stroke:none;" d="M346.333 331.667L346.667 332.333L346.333 331.667z"/>
<path style="fill:#81765d; stroke:none;" d="M153 333L153 334L159 333L153 333z"/>
<path style="fill:#8b7f72; stroke:none;" d="M225.667 332.333L226.333 332.667L225.667 332.333z"/>
<path style="fill:#564b39; stroke:none;" d="M231 333L237 337L234 343L240 342L239 339L242 339C239.449 335.411 235.434 332.823 231 333z"/>
<path style="fill:#a99e84; stroke:none;" d="M236 333L236 334L242 334L236 333z"/>
<path style="fill:#413d34; stroke:none;" d="M248 335L253 335L252 332L248 335z"/>
<path style="fill:#eee2c8; stroke:none;" d="M258 332L255 337L255 338L263 337L263 336L262 333L258 332z"/>
<path style="fill:#bcb78e; stroke:none;" d="M260 332L260 333L263 334L260 332z"/>
<path style="fill:#958a6c; stroke:none;" d="M263 332L261 336L263 332z"/>
<path style="fill:#50452c; stroke:none;" d="M264 332L263 336L270 337L270 336L264 332z"/>
<path style="fill:#918c8b; stroke:none;" d="M99 333L100 334L99 333z"/>
<path style="fill:#58513f; stroke:none;" d="M139 333L139 334L142 335L139 333z"/>
<path style="fill:#352c0e; stroke:none;" d="M142 335L147 333L142 335z"/>
<path style="fill:#7b6e56; stroke:none;" d="M229 334L231 339L232 339L231 333L229 334z"/>
<path style="fill:#b3ad9d; stroke:none;" d="M245 333L250 337L245 333z"/>
<path style="fill:#352d0d; stroke:none;" d="M278 339L284 333C280.192 333.828 279.202 335.373 278 339z"/>
<path style="fill:#89846e; stroke:none;" d="M288 333L286 336L292 338L290 333L288 333z"/>
<path style="fill:#a3a28d; stroke:none;" d="M307 333L308 337L312 336L315 334L311 337L311 338L317 337C315.15 332.398 311.443 333.003 307 333z"/>
<path style="fill:#544f39; stroke:none;" d="M186 334L188 336L187 342L186 342L179 338L179 339L180 343L184 342L189 345L186 352L189 349L191 351L195 348L193 344L193 343L191 343L191 342L193 340L190 340L190 338L195 339L186 334z"/>
<path style="fill:#7d776b; stroke:none;" d="M237 335L237 336L242 338L239 339L239 340L243 340L241 346L242 346L247 341L248 338L241 334L237 335z"/>
<path style="fill:#918c75; stroke:none;" d="M283 334C280.218 337.868 277.817 345.345 282 349L281 344L284 347L285 347L281 339L286 338L283 334z"/>
<path style="fill:#747059; stroke:none;" d="M312 337L315 334L312 337z"/>
<path style="fill:#b4a68b; stroke:none;" d="M322 334L322 335L327 337L322 334z"/>
<path style="fill:#4f5038; stroke:none;" d="M326 334L333 346L334 346L335 343L336 346L337 346C336.107 339.18 332.643 335.453 326 334z"/>
<path style="fill:#b4af9d; stroke:none;" d="M337 334L342 346L343 346C342.984 340.371 342.858 336.107 337 334z"/>
<path style="fill:#a89fa2; stroke:none;" d="M100 335L101 336L100 335z"/>
<path style="fill:#aea796; stroke:none;" d="M139 335L141 338L142 335L139 335z"/>
<path style="fill:#444037; stroke:none;" d="M200 335L201 340L202 340L202 335L200 335z"/>
<path style="fill:#efe5cd; stroke:none;" d="M268 335L268 336L274 336L268 335z"/>
<path style="fill:#ccc7ad; stroke:none;" d="M309 335L312 337L309 335z"/>
<path style="fill:#aca16b; stroke:none;" d="M342 336L343 342C346.267 340.282 346.637 338.548 346 335L342 336z"/>
<path style="fill:#59513c; stroke:none;" d="M145 337L146 340L139 339L135 341C135 338.287 133.616 338.617 131 339L131 340L139 346L137 350L136 350L134 347C135.558 350.674 137.028 351.692 141 352L141 351L138 351L138 350L144 350L146 348L146 347L146 346L141 344L141 343L151 342L151 341L147 341L149 336L145 337z"/>
<path style="fill:#1f1619; stroke:none;" d="M170 336L170 341L169 341L169 337C163.873 337.672 157.205 337.495 154 342C159.641 342 152.234 347.295 150 348L151 352L146 351C147.912 353.921 149.696 353.69 153 353L159 358L165 356L165 361L166 361L168 354L173 349L167 349L167 348C172.092 345.728 179.255 344.767 181 339L176 343L174 338L171 343L173 336L170 336z"/>
<path style="fill:#4e4938; stroke:none;" d="M173 336L171 343C174.054 342.346 173.936 340.993 174 338L176 343L178 336L173 336z"/>
<path style="fill:#9c9988; stroke:none;" d="M246 346L246 347L249 350L252 352L257 352C254.937 348.355 253.167 347.253 249 348L249 347L253 346L253 345L249 345L249 344L257 343L256 341L265 340L264 336L246 346z"/>
<path style="fill:#bfb89f; stroke:none;" d="M270 336L270 337L278 340L270 336z"/>
<path style="fill:#d0ba97; stroke:none;" d="M296 339L300 337L296 339z"/>
<path style="fill:#856c40; stroke:none;" d="M299 336L295 347L295 348L298 353L300 353L301 348L298 348L298 345L304 341L302 336L299 336z"/>
<path style="fill:#7d785e; stroke:none;" d="M326 337L330 342L329 346L333 344L330 336L326 337z"/>
<path style="fill:#ad1a20; stroke:none;" d="M389 341C394.44 341 400.588 342.469 402 336C396.931 336.042 391.128 335.689 389 341z"/>
<path style="fill:#9a9285; stroke:none;" d="M188 337L188 341L189 341L188 337z"/>
<path style="fill:#a69a79; stroke:none;" d="M232 340L237 337C234.007 337.064 232.654 336.946 232 340z"/>
<path style="fill:#c5be9f; stroke:none;" d="M264 337L271 342L271 338L264 337z"/>
<path style="fill:#a69563; stroke:none;" d="M267 337L267 338L271 338L271 342L264 340L265 342L260 345L266 345L261 347L262 350L267 349L267 345L274 345L274 348L275 348L278 348L278 343L272 342L274 340L267 337z"/>
<path style="fill:#848264; stroke:none;" d="M308 337L308 338L315 339L315 338L308 337z"/>
<path style="fill:#a9a88c; stroke:none;" d="M329 337L331 345L332 345C332.403 341.197 333.238 338.191 329 337z"/>
<path style="fill:#2a2210; stroke:none;" d="M127 342L131 342L133 339C129.939 338.182 128.536 339.36 127 342z"/>
<path style="fill:#767265; stroke:none;" d="M198 338L198 340L201 340L201 338L198 338z"/>
<path style="fill:#9e9371; stroke:none;" d="M307 338L308 346L309 346L307 338z"/>
<path style="fill:#dcd8c4; stroke:none;" d="M308 338C308.205 342.687 308.647 346.623 313 349L310 338L308 338z"/>
<path style="fill:#d63b49; stroke:none;" d="M376 344C381.929 342.432 386.148 341.484 391 346L379 350L379 352L391 356L400 341L380 341L380 340L383 339C379.408 338.505 377.757 341.125 376 344z"/>
<path style="fill:#4a422b; stroke:none;" d="M124 339L124 344L125 344L124 339z"/>
<path style="fill:#292210; stroke:none;" d="M135 341L138 339L135 341z"/>
<path style="fill:#6d664b; stroke:none;" d="M278 339L279 343L280 343L278 339z"/>
<path style="fill:#cbc5a4; stroke:none;" d="M285 339L285 347L284 347L281 344L286 352L290 349L287 348L287 346L292 344L292 343L289 343L290 341L285 339z"/>
<path style="fill:#faf6e7; stroke:none;" d="M309 339C310.737 344.507 311.763 349.68 318 351L317 340L309 339z"/>
<path style="fill:#a6a795; stroke:none;" d="M311 339L311 340L317 340L311 339z"/>
<path style="fill:#a39b91; stroke:none;" d="M131 340L135 344L133 340L131 340z"/>
<path style="fill:#78736f; stroke:none;" d="M172.333 340.667L172.667 341.333L172.333 340.667z"/>
<path style="fill:#c5bba5; stroke:none;" d="M235 342L246 352C250.847 348.36 240.88 346.106 243 340L235 342z"/>
<path style="fill:#5d4c2d; stroke:none;" d="M272 340L278 343L278 348L274 348L274 345L273 345C269.866 345.317 267.747 344.514 267 348L273 347L276 353L276 356L264 355L269 357L269 358L261 359L270 363L273 358L272 364L275 363L275 367L279 363L279 362L278 351L282 351L280 354C283.791 354.629 286.841 354.367 289 351L286 352L280 349L279 340L272 340z"/>
<path style="fill:#b1ab8a; stroke:none;" d="M317 340L316 352L324 357C323.867 350.558 323.616 342.764 317 340z"/>
<path style="fill:#6b5e43; stroke:none;" d="M320 341C323.004 346.15 324.271 352.154 323 358C327.595 354.134 324.057 347.184 324 342L327 343L320 341z"/>
<path style="fill:#716a58; stroke:none;" d="M335 340L340 352L341 352L340 347L344 347L344 342L343 342L343 346L342 346L342 340L335 340z"/>
<path style="fill:#3a2c23; stroke:none;" d="M155 341L144 350L138 350L138 351L141 351L139 354L139 355L146 356L143 354L146 351L151 352L150 348C153.871 346.956 156.619 345.267 155 341z"/>
<path style="fill:#362b19; stroke:none;" d="M250 341C238.566 341.347 245.703 350.856 250 341z"/>
<path style="fill:#6f6a4e; stroke:none;" d="M256 341L258 344L249 347L249 348L259 348L260 348C260.568 344.418 261.508 343.057 265 342L256 341z"/>
<path style="fill:#534e3a; stroke:none;" d="M338 341L341 345L341 341L338 341z"/>
<path style="fill:#89131e; stroke:none;" d="M376 341C374.751 345.237 374.225 349.415 379 351L379 347L384 347L384 343L376 344L378 341L376 341z"/>
<path style="fill:#6e6361; stroke:none;" d="M105 342L106 343L105 342z"/>
<path style="fill:#342819; stroke:none;" d="M182 342L176 346L180 351L179 348L185 345L185 343L184 342L182 342z"/>
<path style="fill:#9b9887; stroke:none;" d="M191 345L194 346L196 342L191 345z"/>
<path style="fill:#463116; stroke:none;" d="M301 342L300 353L298 353L297 348L293 348L296 353L290 351L293 353L292 359L301 357L303 362C311.881 361.359 308.422 357.474 312 351L308 350L303 344L306 342L301 342z"/>
<path style="fill:#ad1c26; stroke:none;" d="M380 342L380 343L384 343L384 347C381.007 347.064 379.654 346.946 379 350L391 346C388.333 342.252 384.345 342.048 380 342z"/>
<path style="fill:#786f62; stroke:none;" d="M175 344L175 348L176 348L182 344L175 344z"/>
<path style="fill:#66655c; stroke:none;" d="M192 346L192 347L199 350L201 346L201 345L200 343L192 346z"/>
<path style="fill:#544e3e; stroke:none;" d="M200 343L204 349L203 343L200 343z"/>
<path style="fill:#474023; stroke:none;" d="M252 343L252 344L258 344L252 343z"/>
<path style="fill:#756e59; stroke:none;" d="M334 343L334 346L336 346L336 343L334 343z"/>
<path style="fill:#8b8281; stroke:none;" d="M106 344L107 345L106 344z"/>
<path style="fill:#4a3b31; stroke:none;" d="M121 344L126 346L121 344z"/>
<path style="fill:#e5dbc6; stroke:none;" d="M249 344L249 345L253 345L249 344z"/>
<path style="fill:#45423d; stroke:none;" d="M167 348L167 349L173 349L172 353L178 350L175 345L167 348z"/>
<path style="fill:#877c5d; stroke:none;" d="M182 352L173 352L175 360L176 357L180 358L182 353C181.087 360.029 186.741 360.732 192 358L192 357L189 349L186 352L189 345C184.018 345.276 181.582 346.74 182 352z"/>
<path style="fill:#ccc6a4; stroke:none;" d="M260 345L256 351L262 350L261 347L266 345L260 345z"/>
<path style="fill:#c3a880; stroke:none;" d="M298 345L302 348L298 345z"/>
<path style="fill:#44341b; stroke:none;" d="M131 346L127 350L118 348L118 351L124 352L124 353L119 356L137 359L138 354L135 348L131 346z"/>
<path style="fill:#37321e; stroke:none;" d="M254 349L259 346L254 349z"/>
<path style="fill:#655344; stroke:none;" d="M332 346L329 350L332 346z"/>
<path style="fill:#3b383d; stroke:none;" d="M372 346L375 354L360 364C371.6 368.312 385.129 367.596 390 355C383.755 354.93 376.941 352.472 375 346L372 346z"/>
<path style="fill:#6d613a; stroke:none;" d="M181 347L179 352L182 351L181 347z"/>
<path style="fill:#594b3a; stroke:none;" d="M184 347L184 349L186 349L186 347L184 347z"/>
<path style="fill:#443016; stroke:none;" d="M257 359L273 354L273 347C266.58 347.654 259.885 353.245 257 359z"/>
<path style="fill:#4a401f; stroke:none;" d="M287.667 347.333L288.333 347.667L287.667 347.333z"/>
<path style="fill:#876f49; stroke:none;" d="M192 349L199 355L200 350L192 349z"/>
<path style="fill:#b6ac8e; stroke:none;" d="M195 349L195 350L199 351L199 350L195 349z"/>
<path style="fill:#736b60; stroke:none;" d="M242.667 349.333L243.333 349.667L242.667 349.333z"/>
<path style="fill:#3c3429; stroke:none;" d="M250 349L249 350L249 351L249 352L252 349L250 349z"/>
<path style="fill:#867855; stroke:none;" d="M261 350L260 354L265 349L261 350z"/>
<path style="fill:#7f6646; stroke:none;" d="M291 350L291 351L296 353L294 349L291 350z"/>
<path style="fill:#7f7978; stroke:none;" d="M110 350L111 351L110 350z"/>
<path style="fill:#6d5938; stroke:none;" d="M200 350L198 352L198 356L202 358L200 360L200 365L198 363L197 363L191 363C188.202 365.197 186.962 366.426 184 364L188 361L178 358L182 362L183 371L188 376L191 374L193 368L193 377L195 369L207 369L206 372L211 369L204 368L205 363L205 362L203 361L207 359L212 361L212 359L205 357L208 353L204 351L200 350z"/>
<path style="fill:#77726f; stroke:none;" d="M248 350L246 353L252 354L248 350z"/>
<path style="fill:#73685d; stroke:none;" d="M257 350L257 352L253 351L253 354L260 351L257 350z"/>
<path style="fill:#907d6a; stroke:none;" d="M126 351L128 355L126 351z"/>
<path style="fill:#2f190e; stroke:none;" d="M192 351L197 362L197 363L198 365L200 365L201 364L200 360L202 360L202 358L192 351z"/>
<path style="fill:#887a4c; stroke:none;" d="M278 351L278 356L281 355L282 351L278 351z"/>
<path style="fill:#715d44; stroke:none;" d="M289 351L281 355L281 356L284 358L285 358L293 355L289 351z"/>
<path style="fill:#706854; stroke:none;" d="M336 351L339 358L340 358L336 351z"/>
<path style="fill:#5d5349; stroke:none;" d="M116 354L119 352L116 354z"/>
<path style="fill:#85755d; stroke:none;" d="M136.667 352.333L137.333 352.667L136.667 352.333z"/>
<path style="fill:#b4a896; stroke:none;" d="M138 352L138 353L141 353L138 352z"/>
<path style="fill:#9b957b; stroke:none;" d="M272 352L267 355L267 356L276 356L276 353L272 352z"/>
<path style="fill:#645a50; stroke:none;" d="M310 352L310 359L312 359L312 352L310 352z"/>
<path style="fill:#a39d9d; stroke:none;" d="M112 353L113 354L112 353z"/>
<path style="fill:#82734a; stroke:none;" d="M137 359L134 356L131 364L132 364L133 360L139 362L139 363L135 364L135 365L145 366L145 367L135 368L146 368L143 364L147 357L139 358L139 357L141 354C137.379 353.228 136.895 355.849 137 359z"/>
<path style="fill:#4a4027; stroke:none;" d="M143 354L146 356L142 355L139 357L139 358L147 357L143 364L154 364L154 365L152 367C157.047 365.441 157.778 362.255 155 358L162 359L159 363L162 362L140 375L142 374L142 375L138 382L142 383L143 374L149 373L150 378L144 377L143 382L148 379L144 387L148 390L149 390L152 388L151 390L152 390L155 386L156 386L159 389L160 382L161 382L164 390L166 388L167 388L169 385L168 381L167 381L166 385L165 385L167 363L163 363L163 356L159 358L153 353L143 354z"/>
<path style="fill:#524741; stroke:none;" d="M170 353L168 354L171 358L172 353L170 353z"/>
<path style="fill:#938777; stroke:none;" d="M172 353L171 358L166 361L165 361L165 356L163 356L163 363L171 360L177 375L178 375L180 373L173 365L176 366L174 353L172 353z"/>
<path style="fill:#625a43; stroke:none;" d="M181 353C179.3 355.757 179.718 356.758 182 359L181 353z"/>
<path style="fill:#998d79; stroke:none;" d="M201.333 353.667L201.667 354.333L201.333 353.667z"/>
<path style="fill:#2d1f02; stroke:none;" d="M190 354L194 359L190 354z"/>
<path style="fill:#715e39; stroke:none;" d="M191 354L193 362L199 362L191 354z"/>
<path style="fill:#634431; stroke:none;" d="M286 356L286 358L304 364L301 357L292 359C291.299 355.01 289.663 354.817 286 356z"/>
<path style="fill:#96866a; stroke:none;" d="M205 357L205 358L210 355L205 357z"/>
<path style="fill:#897c6e; stroke:none;" d="M262 355L262 357L264 357L264 355L262 355z"/>
<path style="fill:#e0d3a6; stroke:none;" d="M279 355L279 357L281 357L281 355L279 355z"/>
<path style="fill:#b1ab8e; stroke:none;" d="M278 356L277 361L282 361L284 356L278 356z"/>
<path style="fill:#c7c0a0; stroke:none;" d="M354 356L349 370C353.735 369.997 361.705 370.79 365 367L354 368L354 366L361 365L356 356L354 356z"/>
<path style="fill:#6d6659; stroke:none;" d="M356 356L356 360L357 360L356 356z"/>
<path style="fill:#918a8a; stroke:none;" d="M115 357L116 358L115 357z"/>
<path style="fill:#6a5440; stroke:none;" d="M126 357L126 359L130 359L130 357L126 357z"/>
<path style="fill:#aaa395; stroke:none;" d="M176 357L176 367L182 362L176 357z"/>
<path style="fill:#b3ad93; stroke:none;" d="M258 364L254 364C254.039 368.413 254.075 372.396 258 375L256 371C258.241 364.721 263.265 365.803 269 364L268 367L273 358L270 363L261 359L269 358C263.481 355.69 258.914 358.144 258 364z"/>
<path style="fill:#7e7777; stroke:none;" d="M116 358L117 359L116 358z"/>
<path style="fill:#392d19; stroke:none;" d="M155 358C156.811 362.345 156.267 364.783 152 367L154 365L154 364C149.474 361.709 146.813 362.9 146 368L141 371L150 364L149 367C154.034 368.432 160.209 367.468 162 362L159 363L162 359L155 358z"/>
<path style="fill:#a69069; stroke:none;" d="M180 358L188 361L184 364L185 367L191 363C193.596 364.798 195.148 364.597 197 362L193 362L192 358L180 358z"/>
<path style="fill:#665f55; stroke:none;" d="M258 358L257 364L258 364L260 358L258 358z"/>
<path style="fill:#767360; stroke:none;" d="M281 358L282 361L277 361L277 362L279 363L275 367L270 364C267.689 367.179 264.591 366.946 261 366C262.163 371.429 274.402 368 279 368L278 364L285 361L285 359L281 358z"/>
<path style="fill:#6b654c; stroke:none;" d="M346 358L346 359L353 359L346 358z"/>
<path style="fill:#a09fa1; stroke:none;" d="M388 358L389 359L388 358z"/>
<path style="fill:#594c20; stroke:none;" d="M141 361L144 359L141 361z"/>
<path style="fill:#3a2605; stroke:none;" d="M203 362L207 359L203 362z"/>
<path style="fill:#57523c; stroke:none;" d="M285 359L283 363L287 367L288 367L285 359z"/>
<path style="fill:#8f8b5a; stroke:none;" d="M338 375L339 375L342 370L341 380C345.886 375.701 351.068 365.405 352 359C342.844 359.222 338.254 366.244 338 375z"/>
<path style="fill:#4d3d2a; stroke:none;" d="M133 360C132.356 362.32 132.17 363.519 130 362C127.205 367.156 125.869 370.044 131 374L132 371L137 375L140 372L140 371L138 370L141 369L141 368L135 368L142 366L142 365L135 365L135 364L139 363L139 362L133 360z"/>
<path style="fill:#1f1407; stroke:none;" d="M168 360L167 367C170.551 365.961 170.752 363.47 171 360L168 360z"/>
<path style="fill:#2a2414; stroke:none;" d="M173 360L176 364L176 360L173 360z"/>
<path style="fill:#252412; stroke:none;" d="M154 361L154 364L155 364L156 361L154 361z"/>
<path style="fill:#a6916d; stroke:none;" d="M205 362L205 363L212 363L205 362z"/>
<path style="fill:#62584e; stroke:none;" d="M332 361L332 364L335 364L335 361L332 361z"/>
<path style="fill:#a19e7b; stroke:none;" d="M278 364L281 371L280 366L286 366L284 369L284 370L288 370C287.016 363.987 283.761 362.27 278 364z"/>
<path style="fill:#5e5542; stroke:none;" d="M337 362L336 367L339 362L337 362z"/>
<path style="fill:#737272; stroke:none;" d="M120 363L121 364L120 363z"/>
<path style="fill:#a08e73; stroke:none;" d="M180 363L178 365L178 366L185 371L182 363L180 363z"/>
<path style="fill:#897550; stroke:none;" d="M202 363L206 366L205 363L202 363z"/>
<path style="fill:#5f573b; stroke:none;" d="M205 363L210 366L210 364L205 363z"/>
<path style="fill:#191403; stroke:none;" d="M271 364L271 365L275 364L271 364z"/>
<path style="fill:#a0a2a5; stroke:none;" d="M384 363L385 364L384 363z"/>
<path style="fill:#827c7e; stroke:none;" d="M121 364L122 365L121 364z"/>
<path style="fill:#9f8e6a; stroke:none;" d="M148 364L141 371L141 372L152 370L152 368L150 364L148 364z"/>
<path style="fill:#807e69; stroke:none;" d="M163 364L163 375L165 375L166 374L163 364z"/>
<path style="fill:#67502d; stroke:none;" d="M170 364L168 367L169 376L170 376L170 372L173 373L170 364z"/>
<path style="fill:#4b3311; stroke:none;" d="M263 368L269 364L263 368z"/>
<path style="fill:#a9a08f; stroke:none;" d="M142 365L145 367L142 365z"/>
<path style="fill:#3c321a; stroke:none;" d="M173 365C174.106 368.943 178.931 370.987 180 366L173 365z"/>
<path style="fill:#665846; stroke:none;" d="M253 365L253 370L254 370L253 365z"/>
<path style="fill:#5c461d; stroke:none;" d="M256 368L261 365L256 368z"/>
<path style="fill:#9a966f; stroke:none;" d="M348 365L338 386C346.908 384.596 355.934 375.306 363 370L363 369L349 370L350 365L348 365z"/>
<path style="fill:#f1ebd1; stroke:none;" d="M354 366L354 368L368 367L354 366z"/>
<path style="fill:#999c94; stroke:none;" d="M363.667 365.333L364.333 365.667L363.667 365.333z"/>
<path style="fill:#9d9a89; stroke:none;" d="M166 366L170 379L166 366z"/>
<path style="fill:#6c695a; stroke:none;" d="M280 368L283 367L280 368z"/>
<path style="fill:#3e3b19; stroke:none;" d="M281 367L281 368L286 366L281 367z"/>
<path style="fill:#6b686b; stroke:none;" d="M365 369L371 366L365 369z"/>
<path style="fill:#a5a093; stroke:none;" d="M210 367L210 368L221 372C219.363 367.329 214.449 367.194 210 367z"/>
<path style="fill:#dac49d; stroke:none;" d="M257 368L257 369L261 367L257 368z"/>
<path style="fill:#3e3933; stroke:none;" d="M326 367L326 373L327 373L326 367z"/>
<path style="fill:#7e714d; stroke:none;" d="M175 369L175 370L180 370L179 381L185 381C184.737 377.59 184.321 376.099 181 375L182 369L181 368L175 369z"/>
<path style="fill:#9f9379; stroke:none;" d="M191 368C190.546 371.519 190.899 373.172 194 375L193 368L191 368z"/>
<path style="fill:#cec6b0; stroke:none;" d="M210 368L210 369C212.379 371.246 212.247 371.77 210 374L217 375L210 368z"/>
<path style="fill:#725e3b; stroke:none;" d="M266 368L266 369L268 369L268 370L260 372L260 371L264 370L264 369L256 370C258.142 372.723 261.718 375.438 258 378L258 379C262.333 379.484 264.401 378.624 264 374L269 375L268 371L271 370L266 368z"/>
<path style="fill:#595041; stroke:none;" d="M276 368L276 376L277 376L277 371L282 376L278 377L278 378L287 371L287 370L279 371L279 368L276 368z"/>
<path style="fill:#c9c5a3; stroke:none;" d="M280 368L280 369L284 370L284 369L280 368z"/>
<path style="fill:#716d49; stroke:none;" d="M282 368L282 369L286 369L282 368z"/>
<path style="fill:#705d4c; stroke:none;" d="M138 370L144 373L144 372L141 369L138 370z"/>
<path style="fill:#4e3e2e; stroke:none;" d="M195 369C195.315 375.611 194.882 379.7 202 382C199.903 387.703 195.339 386.999 190 387L190 386L192 386L192 385L189 388C194.606 388 200.725 386.661 204 392L201 391L204 395L204 396L201 398L211 399L210 403L211 403L213 400L213 399C207.282 395.019 203.715 390.547 210 385L212 381L208 377L209 380L203 383C203.523 380.46 203.595 380.315 201 380L201 379L203 377L198 374L202 375L207 369L195 369z"/>
<path style="fill:#867f6f; stroke:none;" d="M223 372L224 372L226 370C223.86 368.882 223.473 369.749 223 372z"/>
<path style="fill:#452f09; stroke:none;" d="M260 371L260 372L268 370L260 371z"/>
<path style="fill:#1a1415; stroke:none;" d="M181 370L181 375C185.34 377.335 186.947 382.336 188 387L183 379L179 381L179 376L176 376L173 371C173.118 374.696 173.118 377.864 177 379L169 391L165 386L164 390L161 388L157 392L158 389L150 390C160.365 402.55 184.102 413.264 200 416L200 408C203.317 410.849 206.598 414.183 211 412C205.539 409.397 201.494 407.532 201 401L208 401L201 398L204 396L204 395L201 391L204 392C201.674 386.214 194.298 388 189 388L195 381L202 385C201.304 381.534 189.297 370.069 188 376L181 370z"/>
<path style="fill:#302816; stroke:none;" d="M208 370L208 372L212 372L212 370L208 370z"/>
<path style="fill:#736858; stroke:none;" d="M212 370L202 373L207 378L201 379L201 380L203 383L209 380L208 377L212 379L214 376L210 374L212 370z"/>
<path style="fill:#bcb3a7; stroke:none;" d="M224 370L224 372L226 372L226 370L224 370z"/>
<path style="fill:#7a6d64; stroke:none;" d="M226 370L225 373L226 370z"/>
<path style="fill:#635f44; stroke:none;" d="M337 370L337 375L338 375L337 370z"/>
<path style="fill:#736f4c; stroke:none;" d="M341 370L335 386L335 387L341 387L341 386L338 386C340.161 381.38 344.027 374.718 341 370z"/>
<path style="fill:#989898; stroke:none;" d="M378 370L379 371L378 370z"/>
<path style="fill:#9e8e77; stroke:none;" d="M131 371L131 375L132 375L133 371L131 371z"/>
<path style="fill:#6a5a43; stroke:none;" d="M174.667 371.333L175.333 371.667L174.667 371.333z"/>
<path style="fill:#6b6344; stroke:none;" d="M215 371L217 374L215 371z"/>
<path style="fill:#877d62; stroke:none;" d="M277 371L277 374L280 373L280 372L277 371z"/>
<path style="fill:#8b8576; stroke:none;" d="M327 371C327.045 375.986 327.472 380.22 332 383L327 371z"/>
<path style="fill:#989596; stroke:none;" d="M377 371L378 372L377 371z"/>
<path style="fill:#b2a9a3; stroke:none;" d="M128 372L129 373L128 372z"/>
<path style="fill:#23160c; stroke:none;" d="M137 375L133 373C132.935 377.3 135.212 379.212 139 381L140 380L140 372L137 375z"/>
<path style="fill:#988670; stroke:none;" d="M151 372L151 374L154 374L154 372L151 372z"/>
<path style="fill:#231602; stroke:none;" d="M170 372L170 376L171 376L170 372z"/>
<path style="fill:#5b4d34; stroke:none;" d="M176 372L176 376L179 379L180 379L179 372L178 375L177 375L176 372z"/>
<path style="fill:#a39d8f; stroke:none;" d="M282.667 372.333L283.333 372.667L282.667 372.333z"/>
<path style="fill:#999496; stroke:none;" d="M376 372L377 373L376 372z"/>
<path style="fill:#a89f98; stroke:none;" d="M129 373L130 374L129 373z"/>
<path style="fill:#22150c; stroke:none;" d="M147 373L143 374L142 380L144 377L150 378L149 373L147 373z"/>
<path style="fill:#83796d; stroke:none;" d="M171 373L171 377L172 377L173 373L171 373z"/>
<path style="fill:#c5c3b6; stroke:none;" d="M277 377L282 376C279.948 372.899 278.101 373.686 277 377z"/>
<path style="fill:#898586; stroke:none;" d="M375 373L376 374L375 373z"/>
<path style="fill:#72634e; stroke:none;" d="M141 374L140 379L141 374z"/>
<path style="fill:#756a5b; stroke:none;" d="M156 374L160 379L156 374z"/>
<path style="fill:#ada894; stroke:none;" d="M161 374L161 377L163 374L161 374z"/>
<path style="fill:#8e8371; stroke:none;" d="M198 374L200 377L200 374L198 374z"/>
<path style="fill:#a7a17f; stroke:none;" d="M211 378L217 378L215 382L224 385C223.14 381.756 223.791 380.884 227 380L227 379L217 376L222 376L222 374L211 378z"/>
<path style="fill:#7d6f4c; stroke:none;" d="M226 375L227 378L217 376L232 380L232 379L229 378L232 377L231 374L226 375z"/>
<path style="fill:#40361a; stroke:none;" d="M257 381L258 381L261 378L261 374C257.313 375.223 257.12 377.308 257 381z"/>
<path style="fill:#cdc4a3; stroke:none;" d="M264 374C265.459 376.455 266.43 376.289 268 374L264 374z"/>
<path style="fill:#8f8a8b; stroke:none;" d="M374 374L375 375L374 374z"/>
<path style="fill:#655847; stroke:none;" d="M200 375L200 377L202 377L202 375L200 375z"/>
<path style="fill:#9b8c75; stroke:none;" d="M202 375L207 378L202 375z"/>
<path style="fill:#918c79; stroke:none;" d="M267 375L265 376L258 379C261.189 382.65 268.161 380.109 267 375z"/>
<path style="fill:#8c8688; stroke:none;" d="M373 375L374 376L373 375z"/>
<path style="fill:#4e422b; stroke:none;" d="M170 376L168 381L171 382L170 376z"/>
<path style="fill:#afa186; stroke:none;" d="M172 376L172 381L173 381L172 376z"/>
<path style="fill:#756740; stroke:none;" d="M173 376L171 380L171 385C175.297 384.657 176.511 383.249 177 379L173 376z"/>
<path style="fill:#989294; stroke:none;" d="M372 376L373 377L372 376z"/>
<path style="fill:#b9b3a4; stroke:none;" d="M229 378L235 380L229 378z"/>
<path style="fill:#8b8669; stroke:none;" d="M334 377C333.523 381.161 333.053 383.802 337 386C337.308 381.921 338.502 378.509 334 377z"/>
<path style="fill:#938d8f; stroke:none;" d="M371 377L372 378L371 377z"/>
<path style="fill:#968b79; stroke:none;" d="M162 378L164 381L165 378L162 378z"/>
<path style="fill:#867a6b; stroke:none;" d="M167 378L165 385L166 385L167 378z"/>
<path style="fill:#645d2e; stroke:none;" d="M215 378L218 381L217 378L215 378z"/>
<path style="fill:#8f8f8f; stroke:none;" d="M370 378L371 379L370 378z"/>
<path style="fill:#1e1307; stroke:none;" d="M146 379L143 386L148 379L146 379z"/>
<path style="fill:#48321d; stroke:none;" d="M185 379L184 386L185 386L185 379z"/>
<path style="fill:#4c423d; stroke:none;" d="M188 379L192 382L188 379z"/>
<path style="fill:#7d7757; stroke:none;" d="M209 381L210 386L215 389L217 387L225 392L224 389L227 388L227 387L215 386L218 382C214.725 379.383 212.817 379.672 209 381z"/>
<path style="fill:#807772; stroke:none;" d="M235 379L231 385L232 385L239 386L235 379z"/>
<path style="fill:#4e4738; stroke:none;" d="M265 379L260 381L260 382L273 380L265 379z"/>
<path style="fill:#4c4436; stroke:none;" d="M343 385L352 380C348.186 379.432 344.902 381.795 343 385z"/>
<path style="fill:#a2a2a2; stroke:none;" d="M369 379L370 380L369 379z"/>
<path style="fill:#766950; stroke:none;" d="M142 380L142 385L143 385L142 380z"/>
<path style="fill:#827969; stroke:none;" d="M222 383L223 384L229 381L224 382L224 381L227 381L222 383z"/>
<path style="fill:#43392d; stroke:none;" d="M224 381L224 382L229 381L231 383L232 382L232 381L224 381z"/>
<path style="fill:#91826a; stroke:none;" d="M152 381L155 383L155 382L152 381z"/>
<path style="fill:#221b03; stroke:none;" d="M168 381L168 383L170 383L170 381L168 381z"/>
<path style="fill:#886a30; stroke:none;" d="M195 381L190 386L190 387L201 387L195 381z"/>
<path style="fill:#b5ab9d; stroke:none;" d="M139 382L140 383L139 382z"/>
<path style="fill:#817360; stroke:none;" d="M160 382L157 392C160.666 389.686 161.658 385.997 160 382z"/>
<path style="fill:#928a6f; stroke:none;" d="M170 382L167 388L172 382L170 382z"/>
<path style="fill:#6c5b49; stroke:none;" d="M185 382L188 387L185 382z"/>
<path style="fill:#d9cba5; stroke:none;" d="M215 383L218 386L215 383z"/>
<path style="fill:#645d4a; stroke:none;" d="M223 386L227 387L225 389L227 392L228 392L228 389L233 394C242.632 388.685 231.322 385.816 226 386L228 383L223 386z"/>
<path style="fill:#a9a390; stroke:none;" d="M226 386L232 386L231 383L226 386z"/>
<path style="fill:#817c7d; stroke:none;" d="M364 383L365 384L364 383z"/>
<path style="fill:#898488; stroke:none;" d="M363 384L364 385L363 384z"/>
<path style="fill:#9e9b9e; stroke:none;" d="M362 385L363 386L362 385z"/>
<path style="fill:#7f7162; stroke:none;" d="M155 386L153 390L155 386z"/>
<path style="fill:#60422a; stroke:none;" d="M208 387L209 392L210 392L212 391L212 386L208 387z"/>
<path style="fill:#8c837e; stroke:none;" d="M331 386C331.656 389.585 332.447 391.783 336 393L331 386z"/>
<path style="fill:#a09da0; stroke:none;" d="M361 386L362 387L361 386z"/>
<path style="fill:#9a8b71; stroke:none;" d="M217 387C220.347 392.141 225.061 393.873 231 394L231 393L224 389L225 392L217 387z"/>
<path style="fill:#2b2512; stroke:none;" d="M229.667 387.333L230.333 387.667L229.667 387.333z"/>
<path style="fill:#a8a596; stroke:none;" d="M232 387L236 390L232 387z"/>
<path style="fill:#908a7e; stroke:none;" d="M149 391L152 388L149 391z"/>
<path style="fill:#534a41; stroke:none;" d="M167 388L167 391L169 391L169 388L167 388z"/>
<path style="fill:#8e8578; stroke:none;" d="M207 389L210 394L207 389z"/>
<path style="fill:#654b3e; stroke:none;" d="M217 389L221 393L217 389z"/>
<path style="fill:#423f33; stroke:none;" d="M228 389L232 393L230 397L235 395L228 389z"/>
<path style="fill:#4f433d; stroke:none;" d="M164 390L162 397L166 390L164 390z"/>
<path style="fill:#8f8784; stroke:none;" d="M150 391L151 392L150 391z"/>
<path style="fill:#706868; stroke:none;" d="M353 391L354 392L353 391z"/>
<path style="fill:#734e2b; stroke:none;" d="M213 392L214 399L219 400L216 401L216 402L221 401L219 394L213 392z"/>
<path style="fill:#897158; stroke:none;" d="M221 392L229 400L227 395L232 393L221 392z"/>
<path style="fill:#2b2527; stroke:none;" d="M186.058 394.992C181.142 396.745 183.766 405.139 188.787 403.338C193.711 401.572 190.998 393.229 186.058 394.992z"/>
<path style="fill:#938a87; stroke:none;" d="M156 395L157 396L156 395z"/>
<path style="fill:#55473a; stroke:none;" d="M229 398L226 401L229 402L229 398z"/>
<path style="fill:#908789; stroke:none;" d="M162 399L163 400L162 399z"/>
<path style="fill:#b4a683; stroke:none;" d="M208 399L209 401L210 401L211 399L208 399z"/>
<path style="fill:#7a6a6d; stroke:none;" d="M341 399L342 400L341 399z"/>
<path style="fill:#87734a; stroke:none;" d="M208 400L204 403L213 408L211 406L211 405L214 404L208 400z"/>
<path style="fill:#aba7a8; stroke:none;" d="M165 401L166 402L165 401z"/>
<path style="fill:#52492d; stroke:none;" d="M201 401C201.224 407.884 204.861 409.905 211 412C206.398 413.379 203.809 410.378 200 408C199.354 417.243 203.519 418.245 212 420L215 417L210 415L210 414L217 415L204 401L201 401z"/>
<path style="fill:#8f8b77; stroke:none;" d="M216 402L216 403L224 405L224 404L222 401L216 402z"/>
<path style="fill:#807b7b; stroke:none;" d="M167 402L168 403L167 402z"/>
<path style="fill:#807777; stroke:none;" d="M169 403L170 404L169 403z"/>
<path style="fill:#a0989a; stroke:none;" d="M334 403L335 404L334 403z"/>
<path style="fill:#93888b; stroke:none;" d="M332 404L333 405L332 404z"/>
<path style="fill:#706969; stroke:none;" d="M173 405L174 406L173 405z"/>
<path style="fill:#877b7d; stroke:none;" d="M330 405L331 406L330 405z"/>
<path style="fill:#6f6460; stroke:none;" d="M254 421L269 406C262.385 407.857 255.99 414.439 254 421z"/>
<path style="fill:#837e7e; stroke:none;" d="M177 407L178 408L177 407z"/>
<path style="fill:#776d6f; stroke:none;" d="M326 407L327 408L326 407z"/>
<path style="fill:#665c51; stroke:none;" d="M222 408L217 410L217 411C219.868 411.655 222.818 411.633 222 408z"/>
<path style="fill:#948b84; stroke:none;" d="M223 408L223 410L225 410L225 408L223 408z"/>
<path style="fill:#848181; stroke:none;" d="M322 409L323 410L322 409z"/>
<path style="fill:#959090; stroke:none;" d="M183 410L184 411L183 410z"/>
<path style="fill:#8b8281; stroke:none;" d="M317 411L318 412L317 411z"/>
<path style="fill:#9d9999; stroke:none;" d="M188 412L189 413L188 412z"/>
<path style="fill:#6e6a6a; stroke:none;" d="M191 413L192 414L191 413z"/>
<path style="fill:#8d8686; stroke:none;" d="M312 413L313 414L312 413z"/>
<path style="fill:#6e6566; stroke:none;" d="M194 414L195 415L194 414z"/>
<path style="fill:#7c7562; stroke:none;" d="M210 414L210 415L217 419C216.265 414.765 214.052 414.224 210 414z"/>
<path style="fill:#685f4d; stroke:none;" d="M223 414L222 417L222 419C223.96 419.653 224.554 420 222 420L222 421C225.687 419.777 225.88 417.692 226 414L223 414z"/>
<path style="fill:#726767; stroke:none;" d="M309 414L310 415L309 414z"/>
<path style="fill:#9c9491; stroke:none;" d="M196 415L197 416L196 415z"/>
<path style="fill:#88807b; stroke:none;" d="M199 416L200 417L199 416z"/>
<path style="fill:#b5afb0; stroke:none;" d="M300.667 417.333L301.333 417.667L300.667 417.333z"/>
<path style="fill:#aaa380; stroke:none;" d="M212 418L219 421L212 418z"/>
<path style="fill:#736f6f; stroke:none;" d="M297 418L298 419L297 418z"/>
<path style="fill:#58503d; stroke:none;" d="M217 419L217 420L220 421L217 419z"/>
<path style="fill:#6d131b; stroke:none;" d="M227 423L256 425L256 420C247.486 421.344 232.919 414.679 227 423z"/>
<path style="fill:#c4bfbf; stroke:none;" d="M293.667 419.333L294.333 419.667L293.667 419.333z"/>
<path style="fill:#bab4b5; stroke:none;" d="M289.667 420.333L290.333 420.667L289.667 420.333z"/>
<path style="fill:#b0a79f; stroke:none;" d="M219 421L220 422L219 421z"/>
<path style="fill:#701e28; stroke:none;" d="M267 421L267 423L274 423L267 421z"/>
<path style="fill:#c6c2c2; stroke:none;" d="M284.667 421.333L285.333 421.667L284.667 421.333z"/>
<path style="fill:#a39191; stroke:none;" d="M222.667 422.333L223.333 422.667L222.667 422.333z"/>
<path style="fill:#c4c0c0; stroke:none;" d="M278.667 422.333L279.333 422.667L278.667 422.333z"/>
<path style="fill:#c4a7a7; stroke:none;" d="M230.667 423.333L231.333 423.667L230.667 423.333z"/>
<path style="fill:#9e6060; stroke:none;" d="M232.667 423.333L233.333 423.667L232.667 423.333z"/>
<path style="fill:#ccb7b7; stroke:none;" d="M270 423L270 424L273 424L270 423z"/>
<path style="fill:#a88181; stroke:none;" d="M239 424L239 425L243 425L239 424z"/>
<path style="fill:#b9acac; stroke:none;" d="M261 424L261 425L264 425L261 424z"/>
</svg>
